<?xml version="1.0" standalone="no"?>
<!DOCTYPE svg PUBLIC "-//W3C//DTD SVG 20010904//EN"
 "http://www.w3.org/TR/2001/REC-SVG-20010904/DTD/svg10.dtd">
<svg version="1.0" xmlns="http://www.w3.org/2000/svg"
 width="850.000000pt" height="510.000000pt" viewBox="0 0 850.000000 510.000000"
 preserveAspectRatio="xMidYMid meet">

<g transform="translate(0.000000,510.000000) scale(0.100000,-0.100000)"
fill="#000000" stroke="none">
<path d="M0 2550 l0 -2550 4250 0 4250 0 0 2550 0 2550 -1057 0 c-828 0 -1059
-3 -1071 -13 -13 -9 -14 -9 -8 0 6 10 -145 13 -738 13 -694 0 -746 -2 -756
-18 -11 -16 -11 -16 -6 0 5 16 -14 17 -235 17 -237 0 -239 0 -229 -20 6 -11
10 -25 8 -31 -2 -6 -10 3 -17 21 -14 31 -14 32 -79 30 -54 -2 -62 -4 -48 -14
17 -13 13 -45 -6 -45 -6 0 -7 7 -4 16 3 8 2 12 -4 9 -6 -3 -10 3 -10 14 0 20
-5 20 -2120 21 l-2120 0 0 -2550z m3964 2531 c3 -4 -3 -16 -14 -26 -27 -24
-27 -65 0 -65 31 0 23 -18 -15 -34 -33 -14 -48 -29 -24 -23 6 1 14 -4 16 -11
4 -11 1 -12 -16 -3 -22 12 -41 7 -41 -10 0 -6 5 -7 11 -3 8 4 9 0 4 -15 -4
-12 -2 -21 4 -21 22 0 11 -41 -14 -50 -16 -6 -25 -17 -25 -32 -1 -22 -1 -22
-12 -3 -6 11 -20 28 -32 37 -11 10 -17 18 -12 18 5 0 18 -7 28 -17 10 -9 18
-12 18 -6 0 5 -9 18 -20 28 -21 19 -28 41 -10 30 6 -4 17 -1 25 5 10 8 15 9
15 2 0 -6 -4 -14 -10 -17 -15 -9 -12 -22 6 -29 8 -3 12 -2 9 4 -3 5 0 19 7 31
11 18 11 22 0 26 -10 4 -10 8 -1 19 9 11 6 16 -12 23 -25 9 -39 6 -39 -9 0 -5
7 -7 15 -4 20 8 19 2 -3 -17 -18 -15 -19 -14 -20 22 -1 29 2 39 13 39 8 0 15
-4 15 -8 0 -4 16 -9 36 -10 24 -2 33 1 29 8 -4 6 -14 9 -22 6 -10 -4 -13 -1
-8 13 4 13 0 23 -11 29 -9 5 -15 15 -12 22 3 9 9 8 22 -5 15 -15 19 -16 27 -4
6 10 9 10 9 2 0 -7 5 -13 11 -13 6 0 8 9 4 20 -3 11 -2 20 3 20 5 0 12 9 15
20 5 21 22 27 31 11z m156 -1 c8 -5 12 -11 10 -14 -3 -2 -14 2 -24 10 -22 15
-10 19 14 4z m478 -15 c6 -14 8 -25 4 -25 -13 1 -42 27 -42 39 0 21 27 11 38
-14z m-1752 -6 c19 -22 19 -22 -3 -8 -13 8 -23 17 -23 21 0 12 6 9 26 -13z
m1888 -10 c-2 -17 -9 -38 -15 -47 -8 -14 -9 -12 -4 8 3 14 8 34 9 45 4 23 5
25 10 25 2 0 2 -14 0 -31z m600 16 c3 -8 1 -15 -4 -15 -6 0 -10 7 -10 15 0 8
2 15 4 15 2 0 6 -7 10 -15z m-1543 -22 c-12 -20 -14 -14 -5 12 4 9 9 14 11 11
3 -2 0 -13 -6 -23z m-341 7 c0 -5 -4 -10 -10 -10 -5 0 -10 5 -10 10 0 6 5 10
10 10 6 0 10 -4 10 -10z m230 -16 c0 -28 -16 -33 -23 -6 -3 10 -5 6 -6 -11 -1
-24 2 -26 17 -18 21 11 36 4 45 -21 7 -20 32 -24 42 -8 3 6 12 10 18 10 7 0 4
-7 -6 -14 -14 -11 -15 -15 -5 -20 28 -12 -49 7 -81 21 -21 8 -38 10 -44 4 -5
-5 -1 -12 12 -16 12 -3 21 -11 21 -16 0 -6 -7 -6 -17 -1 -22 12 -45 4 -37 -11
4 -7 1 -7 -7 1 -12 11 -12 14 1 22 16 10 10 13 -30 11 -14 0 -19 2 -12 5 6 3
12 19 12 34 0 16 5 32 10 35 7 4 9 -2 4 -19 -4 -19 -2 -28 11 -32 20 -8 35 11
35 46 0 19 6 26 20 27 15 1 20 -4 20 -23z m1200 -3 c0 -18 -3 -22 -9 -13 -7
11 -9 11 -14 -2 -5 -11 0 -16 14 -16 12 0 19 -5 16 -12 -2 -7 -12 -12 -21 -12
-9 1 -16 -2 -16 -7 0 -5 -9 -9 -21 -9 -12 0 -19 -5 -17 -12 8 -22 32 -19 60 7
27 25 68 34 68 15 0 -6 -6 -10 -14 -8 -8 2 -15 -1 -14 -7 0 -5 5 -9 12 -7 7 2
7 -1 -1 -9 -10 -10 -16 -10 -24 -2 -9 9 -21 6 -47 -12 -19 -13 -40 -21 -46
-18 -6 4 -6 8 2 11 16 5 -4 32 -24 32 -7 0 -15 4 -18 8 -3 5 5 8 17 8 33 -1
34 32 1 44 -15 6 -25 13 -22 16 3 2 18 0 33 -6 31 -12 60 -6 50 10 -8 14 1 27
20 27 10 0 15 -9 15 -26z m220 14 c7 -8 27 -17 46 -21 20 -4 34 -12 34 -20 0
-8 16 -24 35 -35 19 -12 35 -25 35 -31 0 -5 6 -8 13 -5 6 2 28 -1 47 -8 19 -7
41 -10 48 -8 6 3 12 0 12 -7 0 -6 -4 -8 -10 -5 -5 3 -10 -1 -10 -10 0 -8 -10
-19 -22 -24 -25 -9 -41 -5 -33 9 3 5 1 11 -5 15 -15 9 -25 -45 -11 -66 17 -29
13 -35 -9 -11 -11 12 -20 30 -20 42 0 11 -5 20 -11 20 -5 0 -7 5 -3 11 4 8 1
8 -12 1 -17 -9 -19 -6 -19 30 0 33 -5 42 -29 56 -16 9 -40 27 -54 40 -14 12
-31 22 -38 22 -8 0 -14 5 -14 10 0 15 16 12 30 -5z m-1532 -24 c-2 -10 -14
-16 -33 -16 -17 -1 -36 -4 -43 -8 -6 -5 -12 -4 -12 2 0 6 6 11 13 11 8 0 22 9
31 19 20 22 49 17 44 -8z m1429 -5 c-2 -6 -18 -11 -35 -11 -26 -1 -29 2 -19
15 7 8 16 18 22 22 12 9 37 -11 32 -26z m-67 14 c0 -5 -5 -10 -11 -10 -5 0 -7
5 -4 10 3 6 8 10 11 10 2 0 4 -4 4 -10z m424 -6 c3 -8 2 -12 -4 -9 -6 3 -10
10 -10 16 0 14 7 11 14 -7z m-1977 -22 c-17 -15 -35 -31 -38 -35 -3 -5 -10 -9
-15 -10 -5 -1 -8 -22 -7 -47 1 -30 -1 -40 -7 -30 -8 13 -11 13 -24 0 -8 -8
-16 -22 -18 -30 -3 -17 -23 -40 -34 -40 -3 0 -1 7 6 15 7 9 9 26 5 45 -6 29
-20 33 -20 7 0 -7 -9 -11 -19 -9 -14 3 -17 -1 -14 -15 4 -15 0 -19 -16 -18
-14 1 -22 10 -24 25 -3 17 0 21 12 17 12 -5 13 -2 7 16 -8 20 -5 23 17 25 14
1 29 8 34 15 6 9 8 9 8 0 0 -19 14 -16 42 10 14 12 37 31 52 41 15 11 25 24
23 30 -3 6 10 12 29 13 l34 2 -33 -27z m1270 16 c6 16 28 15 42 -2 10 -12 8
-13 -8 -9 -12 3 -21 1 -21 -5 0 -6 -9 -8 -20 -5 -21 6 -29 -12 -9 -19 8 -3 6
-10 -5 -20 -9 -9 -14 -23 -11 -31 4 -8 0 -14 -10 -14 -10 0 -13 6 -10 18 4 12
-1 23 -14 31 -28 17 -26 24 4 32 14 4 29 14 32 22 5 13 8 13 15 2 7 -10 11
-10 15 0z m593 2 c-8 -5 -19 -10 -25 -10 -5 0 -3 5 5 10 8 5 20 10 25 10 6 0
3 -5 -5 -10z m-1493 -6 c-3 -3 -12 -4 -19 -1 -8 3 -5 6 6 6 11 1 17 -2 13 -5z
m356 -23 c3 -14 0 -17 -14 -14 -11 3 -19 14 -19 24 0 23 26 15 33 -10z m937 8
c0 -4 -7 -6 -15 -3 -8 4 -15 10 -15 15 0 4 7 6 15 3 8 -4 15 -10 15 -15z m255
11 c3 -6 -1 -7 -9 -4 -18 7 -21 14 -7 14 6 0 13 -4 16 -10z m-845 -10 c0 -5
-9 -14 -19 -19 -16 -9 -18 -8 -14 9 5 20 33 29 33 10z m-270 -10 c0 -5 -5 -10
-11 -10 -5 0 -7 5 -4 10 3 6 8 10 11 10 2 0 4 -4 4 -10z m50 0 c0 -5 -5 -10
-11 -10 -5 0 -7 5 -4 10 3 6 8 10 11 10 2 0 4 -4 4 -10z m120 -1 c0 -3 -18 -5
-40 -5 -22 0 -40 4 -40 7 0 4 18 7 40 6 22 -1 40 -4 40 -8z m-1663 -14 c4 -4
3 -5 -4 -2 -6 4 -13 2 -15 -5 -2 -6 -10 -8 -16 -4 -7 4 -10 11 -7 16 6 10 31
7 42 -5z m2418 5 c3 -5 16 -10 28 -10 20 -1 78 -27 67 -31 -25 -8 -48 -4 -43
7 3 8 1 14 -5 14 -5 0 -13 -7 -16 -16 -7 -19 -31 -13 -31 7 0 8 -9 19 -20 26
-17 10 -17 12 -3 13 9 0 20 -4 23 -10z m579 -6 c3 -8 2 -12 -4 -9 -6 3 -10 10
-10 16 0 14 7 11 14 -7z m196 -5 c0 -14 -27 -10 -33 5 -4 10 0 12 14 9 10 -3
19 -9 19 -14z m-2470 -29 c-19 -11 -29 -4 -25 18 2 9 4 19 4 22 1 2 9 -4 19
-13 14 -15 15 -19 2 -27z m-29 -20 c5 0 9 -7 9 -16 0 -14 -3 -14 -15 -4 -8 7
-15 19 -15 27 0 8 -4 11 -10 8 -20 -12 -32 7 -13 20 16 12 19 11 26 -11 5 -13
13 -24 18 -24z m1339 35 c0 -8 8 -15 18 -16 13 0 12 -2 -5 -9 -16 -7 -21 -14
-16 -27 3 -10 3 -15 -2 -11 -4 4 -8 18 -9 30 -1 16 -7 22 -19 20 -9 -2 -17 2
-17 8 0 6 5 8 10 5 6 -3 10 -1 10 4 0 6 7 11 15 11 8 0 15 -7 15 -15z m-1207
-2 c-7 -2 -19 -2 -25 0 -7 3 -2 5 12 5 14 0 19 -2 13 -5z m1504 1 c-3 -3 -12
-4 -19 -1 -8 3 -5 6 6 6 11 1 17 -2 13 -5z m20 -26 c-3 -7 -5 -2 -5 12 0 14 2
19 5 13 2 -7 2 -19 0 -25z m-904 7 c-3 -9 -8 -14 -10 -11 -3 3 -2 9 2 15 9 16
15 13 8 -4z m265 -10 c-3 -3 -9 2 -12 12 -6 14 -5 15 5 6 7 -7 10 -15 7 -18z
m262 15 c0 -5 -8 -10 -17 -10 -15 0 -16 2 -3 10 19 12 20 12 20 0z m-438 -32
c-8 -8 -9 -4 -5 13 4 13 8 18 11 10 2 -7 -1 -18 -6 -23z m1203 -26 c-4 -4 -12
1 -19 10 -7 10 -16 15 -19 12 -3 -3 -3 3 0 15 5 20 6 20 25 -5 11 -14 17 -28
13 -32z m-1711 40 c2 -4 -4 -9 -15 -9 -10 -1 -19 2 -19 8 0 11 27 12 34 1z
m590 -8 c3 -8 2 -12 -4 -9 -6 3 -10 10 -10 16 0 14 7 11 14 -7z m793 10 c-3
-3 -12 -4 -19 -1 -8 3 -5 6 6 6 11 1 17 -2 13 -5z m-1757 -14 c0 -5 -4 -10
-10 -10 -5 0 -10 5 -10 10 0 6 5 10 10 10 6 0 10 -4 10 -10z m322 -6 c-5 -9
-7 -26 -4 -38 4 -21 4 -21 -11 -1 -20 24 -21 42 -4 48 23 10 28 7 19 -9z
m1051 -33 c3 8 6 9 6 2 2 -20 -21 -27 -31 -10 -4 9 -15 23 -23 31 -8 8 -15 18
-15 23 0 4 13 -7 29 -26 20 -25 30 -30 34 -20z m173 40 c12 9 13 9 9 -3 -4
-10 1 -17 14 -21 16 -4 21 0 22 16 0 21 1 21 9 2 14 -34 11 -37 -25 -31 -22 4
-35 3 -35 -4 0 -5 -3 -10 -7 -10 -5 0 -9 15 -10 33 0 17 1 26 4 19 4 -10 8
-10 19 -1z m283 6 c-2 -1 -15 -11 -29 -22 -15 -12 -20 -14 -12 -4 6 9 9 19 5
22 -3 4 4 7 17 7 13 0 21 -1 19 -3z m26 -7 c3 -5 1 -10 -4 -10 -6 0 -11 5 -11
10 0 6 2 10 4 10 3 0 8 -4 11 -10z m-2121 -21 c-3 -5 -10 -7 -15 -3 -5 3 -7
10 -3 15 3 5 10 7 15 3 5 -3 7 -10 3 -15z m44 9 c-6 -18 -28 -21 -28 -4 0 9 7
16 16 16 9 0 14 -5 12 -12z m489 -11 c10 4 14 2 10 -4 -4 -6 -15 -13 -25 -15
-16 -4 -18 -1 -13 21 3 18 6 21 9 9 2 -11 9 -15 19 -11z m576 -14 c-3 -7 2
-13 11 -13 9 0 16 -5 16 -11 0 -6 -7 -9 -15 -5 -8 3 -15 1 -15 -4 0 -6 -7 -10
-16 -10 -9 0 -23 -8 -30 -17 -7 -10 -14 -13 -14 -7 0 8 -12 7 -41 -3 -23 -7
-43 -12 -46 -10 -9 10 51 39 72 34 19 -3 25 1 30 22 8 32 37 62 47 48 3 -6 4
-16 1 -24z m1281 16 c-3 -5 -10 -7 -15 -3 -5 3 -7 10 -3 15 3 5 10 7 15 3 5
-3 7 -10 3 -15z m-1674 -6 c0 -10 -4 -14 -8 -8 -4 6 -11 13 -16 18 -5 4 -2 7
7 7 10 0 17 -8 17 -17z m170 -8 c14 -19 14 -19 -2 -6 -10 7 -18 18 -18 24 0 6
1 8 3 6 1 -2 9 -13 17 -24z m531 -19 c5 -6 -1 -14 -18 -21 l-26 -11 28 -18
c20 -13 30 -15 33 -7 2 7 12 1 23 -13 12 -15 26 -23 34 -19 8 3 15 1 15 -5 0
-6 10 -8 23 -4 21 5 21 4 5 -15 -24 -26 -23 -43 3 -43 21 0 21 0 -1 -18 -21
-17 -22 -19 -5 -25 12 -5 16 -3 12 6 -9 23 56 -15 83 -48 13 -16 18 -25 11
-18 -8 6 -20 9 -27 6 -8 -3 -14 1 -14 11 0 9 -8 16 -17 16 -13 0 -8 -10 21
-37 35 -32 40 -34 51 -20 9 12 15 13 23 5 22 -22 23 0 2 41 -21 42 -34 55 -23
24 5 -16 4 -15 -9 1 -8 10 -20 16 -25 13 -6 -4 -22 2 -34 13 l-24 19 25 -6
c22 -4 21 -3 -8 16 -18 12 -38 21 -45 22 -6 0 0 5 16 11 30 11 35 25 12 34
-11 5 -12 11 -5 24 14 25 13 33 -3 27 -17 -6 -10 41 9 60 10 10 16 7 30 -15
10 -15 17 -33 16 -41 -2 -7 1 -11 6 -8 4 3 6 -7 4 -23 -3 -21 1 -32 12 -36 24
-9 31 2 15 23 -11 14 -9 14 11 -2 14 -11 32 -28 41 -37 19 -20 37 -25 22 -5
-19 24 -23 46 -7 40 9 -3 14 2 14 16 0 12 5 21 11 21 6 0 9 -6 6 -14 -3 -7 0
-19 6 -25 9 -9 8 -11 -3 -6 -13 4 -15 -3 -15 -38 0 -32 4 -43 13 -40 7 3 10
13 7 24 -5 14 0 20 19 25 30 7 56 33 35 35 -8 1 -21 1 -29 0 -12 -2 -13 0 -1
7 8 6 10 15 5 23 -10 17 25 -8 42 -30 6 -8 16 -11 22 -7 7 4 12 2 12 -3 0 -6
-6 -11 -14 -11 -17 0 -25 -11 -31 -40 -2 -11 1 -20 6 -20 6 0 7 -5 3 -11 -4
-8 -9 -7 -15 2 -6 10 -8 7 -6 -8 1 -17 5 -20 18 -12 26 13 36 11 15 -4 -15
-11 -16 -15 -3 -25 22 -19 37 7 34 58 -1 31 2 45 13 48 13 5 13 3 1 -11 -18
-22 -3 -22 22 1 19 16 19 16 10 -3 -35 -68 -37 -74 -23 -99 11 -22 14 -23 28
-10 18 19 29 10 12 -11 -10 -13 -10 -19 4 -33 9 -10 15 -21 14 -23 -2 -2 -1
-2 2 -1 5 4 7 10 9 38 1 13 4 14 16 4 8 -7 22 -10 30 -6 8 3 15 1 15 -4 0 -6
6 -10 14 -10 7 0 19 -7 26 -15 7 -8 21 -15 31 -15 11 0 19 -5 19 -11 0 -5 -4
-7 -10 -4 -5 3 -10 2 -10 -3 0 -5 -11 -15 -25 -22 -14 -7 -25 -18 -25 -25 0
-6 -6 -17 -12 -23 -7 -7 -13 -18 -13 -25 0 -15 -27 -16 -37 -2 -4 5 -8 -6 -8
-25 0 -26 -3 -31 -10 -20 -6 9 -10 10 -10 3 0 -13 19 -28 26 -20 3 3 6 11 7
19 2 7 5 13 9 13 12 0 47 38 42 46 -10 17 13 9 31 -11 10 -11 26 -22 36 -25
11 -4 17 -11 13 -16 -3 -5 -19 2 -36 16 l-30 25 -21 -27 c-12 -16 -25 -30 -29
-33 -9 -7 -5 -37 7 -47 4 -4 5 2 2 15 -3 12 -1 22 4 22 5 0 9 -5 9 -11 0 -5 6
-7 13 -3 8 5 8 3 -2 -9 -11 -14 -11 -18 5 -24 11 -3 21 -10 24 -13 8 -10 60
-21 60 -13 -1 14 -27 43 -39 43 -7 0 -10 4 -7 9 4 5 0 12 -6 14 -7 3 -3 6 8 6
12 1 34 11 50 23 16 12 26 18 22 13 -4 -4 -1 -13 8 -19 13 -10 11 -12 -13 -14
-40 -3 -50 -18 -28 -42 22 -24 34 -25 50 -3 11 15 15 16 31 3 13 -12 18 -12
21 -2 3 6 13 12 23 12 10 0 29 15 41 33 13 17 27 35 32 38 5 4 7 11 4 16 -3 5
3 14 14 21 11 7 19 8 19 2 0 -5 -4 -10 -10 -10 -5 0 -10 -7 -10 -15 0 -24 14
-17 34 15 16 29 43 33 32 5 -6 -16 20 -28 44 -20 12 4 25 -7 45 -36 20 -32 23
-40 10 -36 -9 4 -22 7 -28 7 -7 0 -6 5 3 10 13 9 13 12 -2 24 -10 7 -15 16
-11 19 3 4 2 7 -3 7 -20 0 -34 -23 -23 -37 9 -9 8 -13 0 -13 -7 0 -9 -6 -6
-12 4 -7 -1 -4 -9 6 -9 11 -23 21 -32 22 -25 4 -30 14 -6 14 27 0 37 16 15 25
-12 4 -24 -1 -35 -14 -9 -12 -24 -21 -35 -21 -15 0 -16 -2 -3 -11 12 -8 9 -9
-9 -4 -20 6 -23 5 -17 -11 4 -10 4 -15 0 -11 -12 11 -33 -13 -27 -30 6 -14 7
-14 12 -2 5 13 9 12 23 -2 14 -15 14 -18 2 -23 -8 -3 -12 -2 -9 3 3 6 -21 8
-55 7 -50 -2 -60 0 -55 12 4 12 3 12 -9 3 -7 -6 -16 -20 -19 -30 -4 -16 0 -19
25 -15 17 2 36 8 43 14 9 7 16 6 26 -7 12 -15 12 -16 -4 -10 -13 5 -17 3 -15
-5 3 -7 20 -16 39 -19 19 -4 41 -9 50 -13 25 -11 34 13 13 30 -18 14 -17 14 5
3 21 -10 26 -8 42 12 9 13 16 27 13 30 -2 4 5 5 16 2 11 -3 20 -10 20 -15 0
-5 -5 -6 -11 -3 -6 4 -13 -2 -16 -14 -3 -12 -9 -21 -14 -21 -5 0 -22 -13 -38
-28 -29 -27 -29 -28 -11 -51 19 -26 50 -23 50 4 0 8 6 15 13 16 6 0 1 5 -12
10 -19 8 -22 12 -12 22 9 9 14 9 19 0 4 -6 27 -14 50 -18 65 -9 99 -27 39 -20
-54 7 -87 0 -87 -20 0 -7 -6 -16 -12 -18 -18 -7 11 -28 32 -24 8 2 35 -17 60
-41 37 -36 39 -40 13 -22 -18 12 -33 18 -33 14 0 -3 -7 -1 -15 6 -8 7 -12 17
-8 22 3 6 0 8 -8 6 -8 -3 -22 -1 -32 4 -9 5 -23 6 -29 2 -7 -5 -3 -11 13 -17
13 -6 27 -9 31 -9 4 1 5 -4 2 -12 -3 -8 -1 -17 5 -21 6 -3 11 -11 11 -17 0 -6
-9 -3 -20 7 -11 10 -20 24 -20 32 0 7 -4 13 -10 13 -5 0 -7 -7 -4 -15 4 -8 1
-15 -5 -15 -6 0 -11 -7 -11 -15 0 -8 5 -15 10 -15 6 0 10 4 10 10 0 5 6 7 14
4 8 -3 15 -13 14 -22 0 -9 3 -27 7 -39 5 -15 3 -23 -5 -23 -7 0 -10 7 -7 15 6
15 -41 60 -52 49 -3 -3 5 -14 19 -24 14 -11 20 -20 13 -20 -6 0 -15 5 -18 10
-7 11 -25 4 -25 -8 0 -15 57 -39 72 -31 10 6 20 4 28 -6 13 -15 35 -11 25 5
-3 5 0 12 5 15 7 5 5 12 -7 20 -16 12 -15 13 8 12 23 -2 25 -5 18 -24 -7 -18
-5 -21 8 -16 11 4 14 3 9 -5 -4 -7 -13 -12 -21 -12 -7 0 -18 -13 -23 -30 -11
-31 -35 -33 -46 -4 -7 18 -26 18 -54 -1 -21 -16 -20 -17 78 -116 91 -93 101
-100 115 -85 20 20 35 12 34 -17 -1 -17 -2 -18 -6 -4 -5 18 -23 24 -23 8 0 -5
5 -22 11 -38 8 -22 12 -25 21 -13 8 12 9 12 4 -3 -4 -11 10 -39 40 -79 25 -34
61 -90 81 -126 l36 -63 34 33 c19 19 31 25 28 16 -4 -10 -11 -18 -16 -18 -5 0
-9 -12 -9 -26 0 -19 -4 -25 -15 -20 -20 7 -20 9 19 -70 61 -123 115 -303 146
-484 23 -140 21 -402 -4 -549 -37 -209 -117 -434 -209 -585 l-32 -51 -5 -235
-5 -235 -206 -1 -205 -2 -95 -62 c-244 -161 -526 -256 -835 -282 -295 -25
-618 34 -891 162 -45 21 -83 37 -83 34 0 -3 41 -25 92 -49 119 -58 98 -58 -27
0 -107 50 -193 99 -273 157 l-52 39 -208 2 -207 3 -1 225 0 225 -28 49 c-161
275 -237 549 -241 880 -2 140 2 193 21 300 46 263 146 513 281 705 36 51 57
91 55 104 -2 15 0 17 6 7 11 -15 16 -8 26 32 7 29 -9 39 -17 10 -4 -14 -5 -12
-6 5 0 12 -6 22 -13 22 -9 0 -9 3 0 12 14 14 16 32 4 24 -10 -6 -9 30 1 40 11
11 8 36 -3 29 -6 -4 -7 1 -3 11 5 14 3 15 -15 5 -12 -7 -22 -17 -22 -23 0 -6
-2 -9 -5 -6 -10 10 6 36 25 41 18 5 53 -26 43 -37 -4 -3 -1 -6 6 -6 6 0 23 11
36 24 16 17 27 20 34 13 6 -6 14 -7 18 -2 5 4 2 10 -5 12 -10 4 -9 9 4 24 21
24 34 24 34 2 0 -13 3 -14 12 -5 15 15 32 16 23 2 -3 -5 1 -10 9 -10 8 0 20 8
25 18 6 9 11 11 11 5 0 -20 -47 -45 -70 -38 -15 5 -20 2 -20 -10 0 -9 -9 -19
-20 -22 -24 -6 -26 -26 -4 -44 14 -11 18 -10 30 5 7 11 11 23 7 29 -3 6 -1 7
5 3 6 -3 32 14 58 39 l47 46 -24 17 c-30 21 -44 22 -43 1 1 -11 -7 -16 -25
-15 -14 1 -25 5 -23 9 1 4 -4 15 -13 24 -14 14 -17 14 -34 -1 -10 -9 -22 -16
-27 -16 -5 0 0 7 11 16 11 8 20 19 20 24 0 6 3 10 8 10 4 0 12 0 17 0 6 0 9
-3 9 -7 -4 -22 3 -24 21 -8 11 10 20 13 20 7 0 -12 15 -10 53 8 28 14 34 25
18 34 -5 3 -16 -6 -26 -20 -16 -25 -17 -25 -36 -8 -14 13 -16 20 -8 25 7 4 13
18 14 31 1 17 8 23 26 23 13 0 26 -3 29 -7 3 -4 20 0 37 9 38 18 88 10 79 -12
-3 -9 0 -12 9 -9 16 7 27 42 14 50 -5 3 -9 0 -9 -5 0 -6 -5 -11 -11 -11 -5 0
-7 5 -3 12 5 8 2 9 -9 5 -10 -3 -17 -4 -17 -1 0 11 53 25 60 15 3 -6 16 -8 28
-4 12 3 19 9 16 15 -3 5 5 6 20 2 20 -5 26 -2 26 10 0 9 7 19 15 22 8 4 15 15
15 26 0 10 -5 16 -10 13 -6 -4 -8 -11 -4 -16 3 -5 1 -8 -5 -7 -5 2 -17 -6 -25
-17 -11 -14 -15 -16 -16 -6 0 10 -7 8 -25 -9 -17 -16 -28 -20 -37 -13 -25 20
-86 5 -72 -18 3 -5 -1 -9 -10 -9 -8 0 -16 -5 -18 -11 -2 -6 -20 -12 -41 -13
-38 -3 -45 6 -28 33 5 8 7 20 4 28 -5 12 -9 12 -27 0 -14 -10 -29 -11 -44 -6
-30 11 -28 18 5 14 32 -3 53 3 53 17 0 6 -7 7 -16 4 -8 -3 -12 -2 -9 4 3 6 17
7 30 4 18 -4 26 0 35 17 12 21 13 21 25 5 11 -15 17 -16 37 -5 21 11 22 11 9
-5 -13 -16 -12 -17 15 -10 16 4 30 11 32 15 2 4 9 6 17 3 7 -3 16 -1 20 5 3 6
-2 11 -13 11 -10 0 -22 3 -26 7 -11 11 -38 16 -86 15 l-45 -1 35 16 c33 15 42
17 83 21 9 1 17 7 17 12 0 6 -11 8 -27 4 -27 -6 -27 -6 -8 9 14 11 24 12 32 5
7 -5 17 -7 22 -4 5 4 13 1 17 -5 4 -8 9 -7 15 2 16 26 10 41 -13 33 -13 -4
-37 -6 -55 -5 -17 1 -34 -3 -38 -8 -8 -14 -65 -2 -94 20 -13 10 -27 16 -32 13
-5 -3 -9 0 -9 5 0 17 19 13 48 -9 27 -22 80 -22 120 -1 14 7 23 8 27 1 9 -15
27 -1 21 16 -9 23 7 16 30 -13 l23 -28 22 21 c24 24 18 44 -13 44 -13 0 -18 5
-15 14 3 8 -1 22 -8 33 -12 15 -16 16 -24 4 -7 -12 -10 -11 -12 2 -3 13 -8 14
-19 6 -11 -8 -12 -12 -3 -15 13 -6 6 -34 -9 -34 -5 0 -6 5 -3 10 4 6 1 17 -5
25 -10 12 -16 10 -36 -10 -14 -14 -36 -28 -49 -31 -14 -3 -25 -10 -25 -15 0
-5 -4 -9 -10 -9 -18 0 -10 17 13 28 16 8 18 11 5 11 -9 1 -20 10 -23 21 -3 11
-13 20 -21 20 -15 0 -38 -46 -29 -60 9 -14 -30 -21 -56 -10 -21 9 -19 9 11 4
28 -4 32 -3 20 6 -11 9 -12 13 -2 17 18 7 15 21 -8 28 -11 3 -20 11 -20 16 0
5 9 4 19 -3 26 -16 58 7 40 28 -9 11 -8 14 3 14 8 0 26 -14 40 -30 28 -34 82
-52 72 -25 -4 8 -14 15 -24 15 -11 0 -21 4 -24 8 -5 9 41 8 50 -1 4 -3 15 -2
26 4 10 5 23 7 28 4 5 -3 11 -1 15 5 12 20 44 10 62 -20 9 -16 20 -30 23 -30
3 0 26 14 50 32 28 21 45 28 48 20 4 -13 22 -17 22 -4 0 5 -11 15 -25 22 -20
11 -23 16 -12 22 8 4 13 19 11 35 -2 25 -1 26 11 10 10 -13 14 -15 18 -5 4 9
6 8 6 -3 1 -21 31 -34 31 -14 0 8 -6 15 -12 15 -8 0 -4 7 6 15 30 23 9 37 -36
25 -50 -14 -67 -36 -42 -55 10 -8 14 -15 8 -15 -6 0 -19 9 -29 20 -10 11 -22
17 -26 14 -5 -3 -9 -3 -9 1 0 3 12 10 26 15 14 6 23 14 20 19 -4 5 0 12 6 14
10 4 9 8 -2 16 -13 10 -13 12 0 21 8 5 20 10 25 10 6 0 4 -4 -3 -8 -7 -5 -10
-16 -6 -25 6 -18 24 -23 24 -8 0 5 8 7 19 4 10 -3 22 0 25 6 4 6 16 11 26 11
10 0 20 5 22 11 2 5 12 11 23 13 14 2 21 12 23 34 2 18 7 32 12 32 4 0 6 -9 3
-20 -8 -29 15 -54 34 -38 13 10 12 14 -3 25 -22 16 -10 17 18 2 16 -9 19 -8
12 2 -4 7 -7 28 -6 47 2 27 -2 35 -18 39 -11 3 -20 9 -20 15 0 5 8 4 19 -1 10
-6 21 -7 25 -4 3 3 6 2 6 -4 0 -6 12 -14 26 -17 19 -5 24 -11 19 -25 -7 -23
19 -35 46 -21 10 6 19 13 19 16 0 2 -9 0 -19 -6 -28 -15 -31 -13 -31 20 0 23
-7 33 -30 45 -17 9 -35 13 -40 10 -6 -3 -10 -2 -10 4 0 16 24 18 39 4 18 -19
34 -12 42 18 7 23 7 23 8 -5 1 -20 5 -27 16 -23 12 5 12 2 3 -19 -6 -13 -8
-27 -5 -30 7 -7 58 49 69 75 6 14 7 14 7 -1 1 -9 -3 -20 -9 -23 -20 -12 -9
-24 18 -19 21 4 25 3 15 -7 -16 -16 -43 -21 -43 -8 0 5 -4 9 -10 9 -5 0 -7
-14 -5 -31 3 -24 -1 -32 -19 -39 -13 -5 -26 -18 -29 -29 -11 -42 31 -13 58 40
10 19 23 29 38 28 21 0 21 -1 -3 -11 -14 -6 -20 -12 -13 -15 17 -6 78 27 65
36 -11 7 -12 81 -1 81 4 0 13 -7 20 -16 11 -13 10 -17 -4 -25 -24 -14 -21 -28
9 -35 17 -4 22 -9 14 -14 -7 -4 -9 -13 -6 -19 4 -6 2 -11 -3 -11 -6 0 -11 4
-11 9 0 5 -13 4 -30 -2 -16 -6 -30 -15 -30 -19 0 -4 8 -4 17 -1 12 5 15 2 10
-10 -8 -21 2 -22 31 -2 20 14 21 14 16 0 -7 -17 4 -19 25 -6 9 6 10 10 2 16
-7 3 -9 16 -6 27 4 12 0 27 -12 40 -17 20 -17 21 0 15 11 -4 20 -1 24 8 4 11
9 13 18 5 10 -8 18 -4 33 15 17 21 21 23 26 9 4 -9 5 -17 4 -18 -2 -1 -19 -9
-38 -18 -21 -10 -28 -17 -17 -17 9 -1 17 -8 17 -18 0 -15 1 -15 18 0 10 10 24
17 31 17 7 0 10 4 7 8 -3 5 1 9 9 9 25 0 17 -14 -15 -27 -24 -10 -28 -15 -19
-26 9 -11 9 -14 0 -14 -7 0 -9 -5 -6 -11 8 -11 51 12 73 39 6 9 12 12 12 8 0
-5 7 -3 15 4 9 7 18 10 21 7 3 -3 -4 -10 -15 -16 -52 -28 -82 -81 -46 -81 7 0
15 -6 18 -12 3 -9 7 -7 12 6 5 11 3 21 -6 28 -10 6 -7 7 10 3 19 -6 23 -4 18
8 -3 9 1 21 9 27 8 8 14 8 14 2 0 -18 35 -6 39 14 2 10 9 23 17 27 22 13 16
27 -10 27 -19 0 -23 4 -19 20 4 15 11 18 29 14 31 -8 49 3 33 22 -9 12 -7 13
17 8 21 -4 35 0 49 14 11 10 27 16 34 14 10 -3 12 0 8 12 -11 29 31 19 45 -11
10 -21 20 -28 43 -28 25 0 31 5 39 35 8 26 11 30 14 15 2 -11 8 -24 13 -29z
m112 29 c-3 -9 -8 -14 -10 -11 -3 3 -2 9 2 15 9 16 15 13 8 -4z m-861 -17 c-7
-7 -12 -8 -12 -2 0 6 3 14 7 17 3 4 9 5 12 2 2 -3 -1 -11 -7 -17z m838 13 c0
-5 -7 -12 -16 -15 -14 -5 -15 -4 -4 9 14 17 20 19 20 6z m-1180 -27 c0 -2 -9
0 -20 6 -11 6 -20 13 -20 16 0 2 9 0 20 -6 11 -6 20 -13 20 -16z m1404 11 c11
-8 18 -17 15 -19 -2 -2 -15 4 -28 15 -27 22 -15 26 13 4z m574 -13 c-2 -11
-13 -17 -30 -17 -23 -1 -25 1 -15 15 26 33 51 34 45 2z m-1891 -4 c-3 -8 -6
-5 -6 6 -1 11 2 17 5 13 3 -3 4 -12 1 -19z m581 10 c-3 -7 -17 -15 -32 -19
-27 -8 -28 -7 -10 12 19 21 48 26 42 7z m1037 2 c-3 -5 7 -18 23 -28 l30 -17
-38 0 c-21 0 -36 3 -34 7 12 19 -27 6 -40 -14 -11 -15 -16 -18 -17 -8 0 8 -4
5 -9 -7 -9 -23 -30 -32 -30 -13 0 6 5 10 10 10 6 0 9 5 8 12 -2 6 6 14 17 16
11 2 33 15 48 28 30 25 42 31 32 14z m-1781 -8 c2 -4 -4 -8 -15 -8 -10 0 -19
4 -19 8 0 4 6 8 14 8 8 0 17 -4 20 -8z m130 -7 c17 -13 18 -15 3 -15 -9 0 -17
-3 -17 -7 0 -5 -16 -8 -35 -8 l-34 0 27 22 c32 26 32 26 56 8z m266 11 c0 -3
-4 -8 -10 -11 -5 -3 -10 -1 -10 4 0 6 5 11 10 11 6 0 10 -2 10 -4z m1507 -2
c-3 -3 -12 -4 -19 -1 -8 3 -5 6 6 6 11 1 17 -2 13 -5z m-497 -18 c0 -3 -4 -8
-10 -11 -5 -3 -10 -1 -10 4 0 6 5 11 10 11 6 0 10 -2 10 -4z m-1753 -72 c-1
-15 -6 -20 -19 -16 -18 4 -22 14 -19 40 1 8 -4 21 -11 30 -7 9 1 5 19 -8 19
-15 31 -33 30 -46z m139 47 c-13 -14 -14 -20 -5 -23 9 -3 8 -6 -4 -11 -26 -10
-30 10 -5 32 27 26 37 27 14 2z m171 -3 c-3 -8 -6 -5 -6 6 -1 11 2 17 5 13 3
-3 4 -12 1 -19z m1950 1 c-4 -15 -2 -19 8 -15 25 9 28 -15 4 -37 l-22 -21 5
22 c3 11 2 22 -3 24 -9 3 -1 48 8 48 3 0 3 -9 0 -21z m-1713 -14 c14 -22 15
-25 1 -25 -14 0 -20 12 -16 34 1 5 -5 6 -14 3 -8 -4 -15 -2 -15 3 0 19 28 10
44 -15z m98 10 c0 -5 -5 -11 -11 -13 -6 -2 -11 4 -11 13 0 9 5 15 11 13 6 -2
11 -8 11 -13z m1312 0 c11 -8 16 -15 12 -15 -5 0 -3 -6 3 -14 7 -8 8 -17 3
-20 -6 -3 -12 3 -15 14 -3 11 -12 20 -21 20 -9 0 -16 7 -16 15 0 19 9 19 34 0z
m-1588 -20 c2 -23 1 -24 -23 -8 -24 16 -24 17 -7 24 28 11 29 11 30 -16z m119
15 c3 -5 1 -10 -4 -10 -6 0 -11 5 -11 10 0 6 2 10 4 10 3 0 8 -4 11 -10z m485
2 c0 -5 -7 -9 -15 -9 -8 0 -12 4 -9 9 3 4 9 8 15 8 5 0 9 -4 9 -8z m645 -1 c3
-5 1 -12 -5 -16 -5 -3 -10 1 -10 9 0 18 6 21 15 7z m475 -1 c0 -5 -5 -10 -11
-10 -5 0 -7 5 -4 10 3 6 8 10 11 10 2 0 4 -4 4 -10z m128 2 c9 -6 7 -13 -10
-28 -13 -11 -17 -12 -11 -3 10 12 10 18 1 27 -14 14 0 16 20 4z m-3913 -12 c3
-5 -1 -10 -9 -10 -9 0 -16 5 -16 10 0 6 4 10 9 10 6 0 13 -4 16 -10z m2000
-29 l7 -24 -22 21 c-12 11 -19 26 -15 32 9 14 20 3 30 -29z m301 0 c-1 -21 -4
-37 -9 -34 -9 5 -6 73 4 73 3 0 6 -18 5 -39z m1996 27 c13 -33 -19 -51 -41
-24 -10 11 -8 17 6 25 24 14 30 13 35 -1z m1678 4 c0 -13 -12 -22 -22 -16 -10
6 -1 24 13 24 5 0 9 -4 9 -8z m-1937 -43 c13 -19 22 -40 19 -48 -4 -12 -24 19
-44 69 -11 29 -7 26 25 -21z m-2702 9 c11 -21 11 -22 -4 -9 -10 7 -17 17 -17
22 0 15 9 10 21 -13z m586 -22 c-12 -18 -13 -26 -4 -36 10 -10 7 -10 -12 0
-13 7 -20 15 -15 19 5 3 16 19 24 34 8 16 16 24 18 18 2 -7 -3 -22 -11 -35z
m2712 18 c-17 -21 -31 -17 -17 5 7 11 16 17 20 14 5 -2 4 -11 -3 -19z m-2849
12 c0 -2 -7 -7 -16 -10 -8 -3 -12 -2 -9 4 6 10 25 14 25 6z m1032 -18 c-7 -7
-12 -8 -12 -2 0 6 3 14 7 17 3 4 9 5 12 2 2 -3 -1 -11 -7 -17z m1373 12 c3 -6
-1 -7 -9 -4 -18 7 -21 14 -7 14 6 0 13 -4 16 -10z m-3985 -15 c17 -20 5 -45
-20 -45 -23 0 -35 22 -26 45 7 19 30 19 46 0z m1534 -7 c-3 -5 2 -19 13 -31
l18 -22 -23 20 c-13 11 -28 27 -33 36 -7 14 -5 16 11 12 11 -3 17 -10 14 -15z
m526 -16 c0 -1 -9 2 -20 8 -11 6 -20 15 -20 20 0 6 9 2 20 -7 11 -10 20 -19
20 -21z m1974 24 c-4 -9 5 -20 24 -30 21 -11 31 -25 34 -46 3 -19 1 -29 -6
-27 -6 2 -12 14 -12 26 -2 30 -24 43 -44 28 -13 -10 -13 -10 -2 5 11 14 10 18
-10 29 -22 12 -22 12 -3 20 11 4 21 8 22 8 1 1 0 -5 -3 -13z m1551 -16 c0 -18
-6 -26 -23 -28 -27 -4 -40 22 -22 44 19 22 45 13 45 -16z m-3695 16 c0 -2 -7
-7 -16 -10 -8 -3 -12 -2 -9 4 6 10 25 14 25 6z m2239 -27 c-21 -13 -25 -11
-25 10 0 16 4 18 19 9 16 -8 17 -12 6 -19z m-2693 6 c17 -16 14 -18 -10 -9 -9
3 -16 10 -16 15 0 13 9 11 26 -6z m2111 -32 c-3 -10 -5 -2 -5 17 0 19 2 27 5
18 2 -10 2 -26 0 -35z m-2027 5 c0 -6 -7 -5 -15 2 -13 10 -19 10 -35 -5 -11
-10 -20 -15 -20 -11 0 4 10 16 23 26 22 18 47 12 47 -12z m330 28 c0 -11 -19
-15 -25 -6 -3 5 1 10 9 10 9 0 16 -2 16 -4z m-103 -28 c-3 -8 -6 -5 -6 6 -1
11 2 17 5 13 3 -3 4 -12 1 -19z m326 -3 c-3 -9 -8 -14 -10 -11 -3 3 -2 9 2 15
9 16 15 13 8 -4z m-943 -24 c14 -26 13 -29 -9 -41 -15 -7 -23 -6 -35 6 -12 12
-13 20 -6 35 14 24 36 24 50 0z m370 3 c0 -8 -4 -12 -10 -9 -5 3 -10 10 -10
16 0 5 5 9 10 9 6 0 10 -7 10 -16z m470 1 c7 -9 8 -15 2 -15 -5 0 -12 7 -16
15 -3 8 -4 15 -2 15 2 0 9 -7 16 -15z m1614 1 c-3 -8 -1 -17 5 -21 6 -3 11
-10 11 -16 0 -5 -10 1 -21 12 -17 17 -19 23 -8 30 19 12 19 11 13 -5z m876 -5
c14 -28 -13 -55 -41 -41 -22 12 -23 15 -9 41 14 24 36 24 50 0z m-3043 -33
c-4 -14 2 -27 16 -39 20 -17 21 -18 3 -19 -10 0 -25 -8 -33 -17 -13 -16 -13
-15 -3 6 7 13 8 26 4 30 -18 13 -34 50 -24 56 6 4 7 11 4 17 -4 6 3 5 16 -2
15 -8 20 -18 17 -32z m161 17 c-3 -3 -9 2 -12 12 -6 14 -5 15 5 6 7 -7 10 -15
7 -18z m157 -1 l-27 -23 30 -15 c32 -17 48 -11 30 11 -18 22 -3 25 17 3 11
-12 13 -20 6 -20 -6 0 -16 -10 -21 -22 -7 -18 -9 -19 -9 -5 -1 9 -7 17 -13 17
-7 0 -28 14 -47 30 -18 17 -30 30 -24 30 5 0 13 -4 19 -10 6 -6 14 -4 23 8 7
10 20 19 28 19 9 0 5 -9 -12 -23z m2152 11 c4 -4 3 -5 -4 -2 -6 4 -13 2 -15
-5 -3 -8 -6 -6 -10 4 -7 17 15 19 29 3z m79 -12 c-10 -10 -19 5 -10 18 6 11 8
11 12 0 2 -7 1 -15 -2 -18z m174 12 c11 0 15 -12 16 -43 0 -23 -3 -37 -7 -30
-5 7 -11 9 -16 5 -4 -4 -2 -17 5 -27 15 -24 4 -27 -13 -4 -10 15 -18 10 -66
-40 -31 -31 -59 -56 -64 -56 -5 0 15 23 43 51 29 28 52 55 52 60 0 4 9 14 20
22 17 12 19 19 10 41 -12 32 -13 45 -2 31 4 -5 14 -10 22 -10z m-290 -26 c0
-4 -6 -9 -14 -12 -9 -4 -13 0 -11 11 2 9 4 22 4 27 1 10 21 -15 21 -26z
m-2300 11 c0 -5 -2 -10 -4 -10 -3 0 -8 5 -11 10 -3 6 -1 10 4 10 6 0 11 -4 11
-10z m2472 -4 c6 4 8 2 5 -4 -4 -5 -16 -8 -28 -5 -16 4 -17 8 -7 14 7 5 14 4
16 -1 2 -6 9 -7 14 -4z m-2662 -6 c0 -5 -5 -10 -11 -10 -5 0 -7 5 -4 10 3 6 8
10 11 10 2 0 4 -4 4 -10z m650 0 c0 -5 -2 -10 -4 -10 -3 0 -8 5 -11 10 -3 6
-1 10 4 10 6 0 11 -4 11 -10z m1540 0 c0 -5 -5 -10 -11 -10 -5 0 -7 5 -4 10 3
6 8 10 11 10 2 0 4 -4 4 -10z m645 -8 c-3 -3 -11 0 -18 7 -9 10 -8 11 6 5 10
-3 15 -9 12 -12z m118 -2 c-3 -11 -9 -20 -14 -20 -11 0 -11 3 -3 24 9 23 23
20 17 -4z m-533 7 c0 -2 -10 -12 -22 -23 l-23 -19 19 23 c18 21 26 27 26 19z
m284 -6 c3 -5 -1 -11 -9 -15 -9 -3 -15 0 -15 9 0 16 16 20 24 6z m-2485 -45
c-3 -3 -11 5 -18 17 -13 21 -12 21 5 5 10 -10 16 -20 13 -22z m71 13 c0 -5 -9
-9 -20 -9 -13 0 -18 5 -14 14 6 15 34 11 34 -5z m1917 15 c-3 -3 -12 -4 -19
-1 -8 3 -5 6 6 6 11 1 17 -2 13 -5z m363 -24 c0 -12 -40 -5 -45 8 -2 7 -1 10
4 7 5 -3 13 0 17 6 4 8 9 7 15 -2 5 -8 9 -16 9 -19z m48 10 c-7 -11 -17 -20
-22 -20 -5 0 -1 9 9 20 10 11 20 20 22 20 2 0 -2 -9 -9 -20z m-324 -6 c3 -8 2
-12 -4 -9 -6 3 -10 10 -10 16 0 14 7 11 14 -7z m156 12 c0 -2 -7 -6 -15 -10
-8 -3 -15 -1 -15 4 0 6 7 10 15 10 8 0 15 -2 15 -4z m633 -16 c3 -11 1 -20 -4
-20 -5 0 -9 9 -9 20 0 11 2 20 4 20 2 0 6 -9 9 -20z m-3123 -4 c0 -2 -7 -7
-16 -10 -8 -3 -12 -2 -9 4 6 10 25 14 25 6z m480 -22 c0 -8 -4 -14 -10 -14 -5
0 -10 9 -10 21 0 11 5 17 10 14 6 -3 10 -13 10 -21z m1944 -15 c-22 -24 -9
-40 41 -48 34 -6 35 -7 14 -19 -12 -8 -19 -9 -15 -4 3 5 -8 9 -24 10 -30 1
-37 -11 -22 -35 9 -14 34 -12 56 6 22 18 64 21 70 4 7 -17 -23 -30 -33 -14 -4
6 -15 9 -24 5 -27 -10 -20 -23 12 -22 15 1 33 -2 39 -6 7 -4 14 3 18 19 3 14
10 25 14 25 4 0 13 14 20 30 7 17 18 33 24 37 6 3 8 3 4 -2 -4 -4 -3 -14 3
-22 9 -10 8 -13 -3 -13 -8 0 -21 -12 -29 -27 -8 -16 -20 -34 -26 -41 -7 -7
-13 -19 -13 -26 0 -8 -8 -20 -17 -27 -12 -10 -15 -10 -9 -1 17 29 -66 60 -102
38 -8 -5 -10 -2 -6 8 4 10 -1 18 -12 22 -11 3 -27 10 -37 15 -13 7 -23 6 -33
-2 -8 -6 -14 -7 -14 -2 0 6 22 29 49 51 27 23 53 52 57 65 4 13 9 17 12 9 2
-7 -4 -22 -14 -33z m506 31 c8 -5 11 -10 5 -10 -5 0 -17 5 -25 10 -8 5 -10 10
-5 10 6 0 17 -5 25 -10z m-2784 -8 c-3 -5 15 -28 39 -52 39 -39 50 -70 23 -70
-6 0 -8 7 -5 15 4 8 -11 31 -38 56 -32 31 -41 45 -32 51 16 10 19 10 13 0z
m234 -2 c0 -5 -5 -10 -11 -10 -5 0 -7 5 -4 10 3 6 8 10 11 10 2 0 4 -4 4 -10z
m-485 -11 c10 -15 -1 -23 -20 -15 -9 3 -13 10 -10 16 8 13 22 13 30 -1z m311
-10 c8 -14 -10 -11 -32 6 -18 13 -18 14 4 8 12 -3 25 -9 28 -14z m118 5 c3 -8
2 -12 -4 -9 -6 3 -10 10 -10 16 0 14 7 11 14 -7z m2271 6 c3 -5 1 -10 -4 -10
-6 0 -11 5 -11 10 0 6 2 10 4 10 3 0 8 -4 11 -10z m313 -19 c6 -17 37 -48 55
-54 7 -2 9 -8 4 -12 -4 -5 -17 1 -30 13 -25 23 -61 29 -72 11 -5 -7 -14 -3
-26 10 -22 23 -26 39 -5 22 10 -9 16 -8 26 3 6 9 9 19 6 25 -4 5 3 7 15 4 11
-3 23 -13 27 -22z m127 19 c11 -17 -5 -32 -21 -19 -7 6 -11 15 -8 20 7 12 21
11 29 -1z m-3004 -12 c1 -7 1 -16 0 -20 -2 -12 14 -9 27 4 7 7 12 8 12 2 0
-19 -21 -31 -46 -26 -28 5 -38 17 -30 37 7 18 36 20 37 3z m2699 8 c0 -2 -7
-7 -16 -10 -8 -3 -12 -2 -9 4 6 10 25 14 25 6z m387 -28 c-3 -8 -6 -5 -6 6 -1
11 2 17 5 13 3 -3 4 -12 1 -19z m-2836 -8 c6 0 7 5 4 10 -3 6 -4 10 -2 10 3 0
15 -17 27 -37 19 -32 19 -35 4 -21 -11 9 -31 19 -46 23 -15 4 -33 13 -39 21
-10 13 -8 13 15 4 15 -5 32 -10 37 -10z m236 -1 c7 -9 23 -19 36 -23 14 -3 23
-13 24 -26 2 -18 -1 -19 -13 -10 -9 9 -18 9 -26 2 -7 -5 -23 -13 -36 -17 -21
-6 -22 -4 -16 21 6 24 5 26 -15 21 -31 -8 -35 8 -5 22 14 6 22 16 19 21 -10
17 19 6 32 -11z m2268 11 c3 -5 1 -10 -4 -10 -6 0 -11 5 -11 10 0 6 2 10 4 10
3 0 8 -4 11 -10z m-125 -10 c0 -5 -5 -10 -11 -10 -5 0 -7 5 -4 10 3 6 8 10 11
10 2 0 4 -4 4 -10z m-2272 -25 c-8 -8 -48 8 -42 16 3 5 14 4 25 -2 12 -6 19
-12 17 -14z m2162 5 c-19 -12 -30 -12 -30 -1 0 10 31 20 40 14 2 -2 -2 -8 -10
-13z m-2115 -39 c-4 -7 -15 -9 -26 -6 -10 4 -19 2 -19 -3 0 -6 -9 -8 -19 -5
-11 3 -17 11 -15 18 6 14 41 14 62 1 17 -11 15 4 -5 28 -16 20 -16 20 6 0 13
-12 20 -27 16 -33z m2672 27 c-3 -8 -6 -5 -6 6 -1 11 2 17 5 13 3 -3 4 -12 1
-19z m-3147 -3 c0 -8 -4 -15 -9 -15 -13 0 -22 16 -14 24 11 11 23 6 23 -9z
m164 -20 c21 -19 34 -35 29 -35 -5 0 -27 16 -49 35 -21 19 -34 35 -29 35 6 0
27 -16 49 -35z m2671 -5 c-3 -5 -11 -10 -16 -10 -6 0 -7 5 -4 10 3 6 11 10 16
10 6 0 7 -4 4 -10z m320 0 c3 -5 1 -10 -4 -10 -6 0 -11 5 -11 10 0 6 2 10 4
10 3 0 8 -4 11 -10z m-415 -10 c0 -5 -2 -10 -4 -10 -3 0 -8 5 -11 10 -3 6 -1
10 4 10 6 0 11 -4 11 -10z m345 -10 c10 -11 16 -20 13 -20 -3 0 -13 9 -23 20
-10 11 -16 20 -13 20 3 0 13 -9 23 -20z m-2983 -42 c-17 -17 -47 9 -30 29 10
12 13 12 27 -1 11 -12 12 -19 3 -28z m2738 28 c0 -8 -7 -16 -15 -20 -12 -4
-13 -2 -2 14 14 24 17 25 17 6z m78 -13 c5 -17 -26 -29 -40 -15 -6 6 -7 15 -3
22 9 14 37 9 43 -7z m-2785 -8 c-3 -9 -8 -14 -10 -11 -3 3 -2 9 2 15 9 16 15
13 8 -4z m3021 -47 c-8 -13 -36 -9 -31 5 2 6 -3 21 -12 31 -12 15 -9 14 16 -4
18 -13 30 -27 27 -32z m-2839 32 c3 -5 1 -10 -5 -10 -6 0 -8 -4 -5 -10 3 -5 1
-10 -4 -10 -6 0 -11 9 -11 20 0 21 15 27 25 10z m-462 -20 c-6 -21 -18 -26
-28 -11 -4 7 17 28 32 31 0 0 -1 -9 -4 -20z m2682 2 c-3 -3 -11 0 -18 7 -9 10
-8 11 6 5 10 -3 15 -9 12 -12z m432 -14 c-3 -7 -5 -2 -5 12 0 14 2 19 5 13 2
-7 2 -19 0 -25z m-3277 8 c0 -2 -8 -10 -17 -17 -16 -13 -17 -12 -4 4 13 16 21
21 21 13z m722 -39 c-9 -6 -18 -3 -27 10 -18 24 2 36 24 14 14 -13 15 -17 3
-24z m2437 34 c8 -5 11 -16 7 -29 -7 -20 11 -71 29 -84 6 -5 5 -8 -3 -8 -7 0
-11 -3 -9 -7 3 -5 -1 -14 -9 -21 -12 -11 -14 -9 -14 7 0 11 -5 23 -11 27 -6 3
-9 15 -6 25 3 10 -1 23 -8 29 -10 8 -18 4 -34 -18 -11 -16 -18 -32 -15 -34 3
-3 -2 -8 -11 -11 -17 -7 -21 8 -5 18 17 10 12 48 -5 41 -8 -3 -15 -1 -15 3 0
5 7 11 15 15 8 3 15 1 15 -4 0 -20 27 -9 48 19 15 21 18 31 9 34 -6 3 -7 6 -2
6 6 0 16 -3 24 -8z m-2693 -22 c19 -22 19 -22 -3 -10 -13 6 -23 16 -23 21 0
15 5 12 26 -11z m2499 11 c3 -5 1 -10 -4 -10 -6 0 -11 5 -11 10 0 6 2 10 4 10
3 0 8 -4 11 -10z m99 -9 c3 -5 -1 -11 -9 -14 -9 -4 -12 -1 -8 9 6 16 10 17 17
5z m-4044 -16 c10 -12 10 -15 -4 -15 -9 0 -16 7 -16 15 0 8 2 15 4 15 2 0 9
-7 16 -15z m4000 11 c0 -2 -7 -7 -16 -10 -8 -3 -12 -2 -9 4 6 10 25 14 25 6z
m-2607 -48 c-10 -18 -20 -6 -15 19 5 24 6 25 12 8 4 -11 6 -23 3 -27z m2919
17 c18 0 23 -6 24 -31 l1 -30 -33 30 c-19 16 -34 37 -34 45 0 14 1 14 10 1 5
-8 19 -15 32 -15z m1268 15 c0 -5 -4 -10 -10 -10 -5 0 -10 5 -10 10 0 6 5 10
10 10 6 0 10 -4 10 -10z m-4313 -18 c15 -9 1 -35 -21 -38 -16 -2 -30 22 -20
37 6 11 25 11 41 1z m254 -1 c-9 -6 -12 -19 -8 -38 5 -23 2 -29 -12 -29 -15 0
-17 3 -7 18 9 15 8 21 -4 28 -13 9 -13 11 0 20 8 5 22 10 30 10 13 0 13 -2 1
-9z m2659 -1 c0 -5 -5 -10 -11 -10 -5 0 -7 5 -4 10 3 6 8 10 11 10 2 0 4 -4 4
-10z m366 -58 c-5 -5 -66 56 -66 65 0 4 16 -8 35 -27 19 -18 33 -36 31 -38z
m-3111 37 c5 -16 0 -28 -18 -45 -23 -21 -26 -22 -29 -6 -4 18 22 72 34 72 4 0
10 -10 13 -21z m155 -10 c9 -15 7 -19 -5 -19 -9 0 -13 5 -10 10 4 6 1 18 -7
27 -9 12 -9 15 -1 9 7 -4 18 -16 23 -27z m-1632 -25 c4 -27 -26 -40 -46 -20
-13 13 -13 18 -2 31 18 21 44 15 48 -11z m1688 11 c-23 -17 -36 -19 -36 -6 0
5 8 12 18 14 32 9 37 6 18 -8z m4003 -4 c8 -14 7 -22 -3 -30 -18 -15 -46 -3
-46 18 0 35 33 43 49 12z m-4961 -47 c4 -26 -20 -37 -43 -21 -10 8 -14 19 -9
30 9 25 48 18 52 -9z m516 1 c-21 -15 -36 -15 -34 0 1 6 7 9 15 7 7 -1 17 2
20 8 4 6 10 9 13 6 3 -4 -3 -13 -14 -21z m388 0 c-2 -10 2 -22 10 -26 10 -7
10 -9 0 -9 -7 0 -15 7 -19 16 -4 12 -14 14 -42 9 l-36 -6 35 19 c41 23 56 22
52 -3z m2633 15 c8 -13 -5 -13 -25 0 -13 8 -13 10 2 10 9 0 20 -4 23 -10z
m130 0 c4 -6 13 -9 20 -8 8 2 14 -1 15 -7 3 -18 -17 -16 -41 4 -13 11 -19 20
-12 21 6 0 15 -5 18 -10z m572 -6 c6 -16 -19 -44 -39 -44 -12 0 -21 28 -14 45
7 20 45 19 53 -1z m-4817 -3 c0 -6 -4 -13 -10 -16 -5 -3 -10 1 -10 9 0 9 5 16
10 16 6 0 10 -4 10 -9z m5362 -6 c0 -5 -5 -11 -11 -13 -6 -2 -11 4 -11 13 0 9
5 15 11 13 6 -2 11 -8 11 -13z m-4907 -5 c3 -5 1 -10 -4 -10 -6 0 -11 5 -11
10 0 6 2 10 4 10 3 0 8 -4 11 -10z m405 -9 c0 -5 -9 -11 -20 -14 -17 -4 -18
-2 -9 14 9 18 29 18 29 0z m3654 -6 c17 -26 17 -26 -6 -13 -13 7 -25 14 -27
15 -3 2 8 23 13 23 2 0 11 -11 20 -25z m-3210 -1 c9 -8 14 -19 11 -24 -3 -5
-1 -11 5 -15 5 -3 10 -1 10 4 0 6 12 11 27 11 14 0 23 -3 19 -7 -4 -5 -13 -8
-19 -8 -7 0 -12 -6 -12 -14 0 -8 -6 -16 -12 -18 -7 -3 -13 0 -13 6 0 6 -5 11
-12 11 -9 0 -9 -3 0 -12 15 -15 16 -32 1 -22 -8 4 -9 -1 -4 -15 4 -13 1 -28
-7 -38 -11 -14 -10 -15 12 -8 24 7 24 7 8 -12 -10 -11 -18 -22 -18 -26 0 -3 8
-4 18 -1 16 5 16 4 -1 -9 -14 -11 -15 -16 -5 -20 8 -4 7 -6 -4 -6 -10 -1 -18
6 -18 14 0 8 -4 15 -10 15 -5 0 -10 -7 -10 -16 0 -8 -5 -12 -10 -9 -8 5 -7 11
1 21 6 8 8 14 4 14 -4 0 -2 6 4 14 9 11 8 18 -4 30 -15 15 -15 16 4 14 11 -2
20 0 20 5 4 49 -1 77 -14 77 -9 0 -15 9 -15 23 0 39 18 48 44 21z m2776 2 c0
-8 3 -21 6 -30 4 -12 0 -16 -15 -16 -15 0 -20 -6 -19 -22 0 -13 0 -27 -2 -33
-7 -26 1 -36 22 -29 20 6 21 5 9 -9 -7 -9 -18 -14 -25 -10 -6 3 -2 -3 8 -15
11 -12 16 -22 11 -22 -4 0 -2 -7 5 -15 23 -28 -1 -15 -38 20 -20 20 -30 33
-22 30 11 -4 15 3 16 30 0 28 -2 32 -13 24 -9 -8 -13 -8 -13 -1 0 6 5 14 10
17 18 11 11 20 -30 38 -48 20 -50 25 -10 19 17 -2 30 -8 30 -13 0 -5 5 -9 11
-9 7 0 9 10 5 24 -6 25 -5 25 47 35 4 0 7 -5 7 -13z m830 10 c0 -3 -4 -8 -10
-11 -5 -3 -10 -1 -10 4 0 6 5 11 10 11 6 0 10 -2 10 -4z m-3462 -26 c-7 -11
-16 -20 -20 -20 -5 0 -3 9 4 20 7 11 16 20 20 20 5 0 3 -9 -4 -20z m2806 -2
c-4 -6 5 -21 21 -34 30 -24 27 -51 -4 -34 -10 5 -21 7 -24 4 -3 -3 -8 9 -12
27 -5 22 -4 34 4 37 6 2 8 9 5 14 -4 7 -2 8 5 4 6 -4 8 -12 5 -18z m-3010 4
c3 -5 -1 -9 -9 -9 -8 0 -12 4 -9 9 3 4 7 8 9 8 2 0 6 -4 9 -8z m2871 -2 c3 -5
-1 -10 -10 -10 -9 0 -13 5 -10 10 3 6 8 10 10 10 2 0 7 -4 10 -10z m-3005 -18
c0 -11 -9 -27 -20 -37 -18 -16 -19 -20 -5 -28 8 -4 13 -12 10 -18 -10 -15 -22
-10 -28 11 -3 11 -13 20 -23 20 -13 0 -9 8 17 34 39 40 49 43 49 18z m4530 14
c0 -3 -4 -8 -10 -11 -5 -3 -10 -1 -10 4 0 6 5 11 10 11 6 0 10 -2 10 -4z
m-5395 -15 c3 -5 1 -12 -5 -16 -5 -3 -10 1 -10 9 0 18 6 21 15 7z m770 -21
c-6 -9 -9 -9 -16 1 -10 17 0 34 13 21 6 -6 7 -16 3 -22z m3332 1 c-1 -15 -4
-17 -14 -9 -17 14 -16 28 1 28 8 0 14 -9 13 -19z m-3197 -1 c0 -5 -4 -10 -10
-10 -5 0 -10 5 -10 10 0 6 5 10 10 10 6 0 10 -4 10 -10z m3061 -3 c-1 -12 -15
-9 -19 4 -3 6 1 10 8 8 6 -3 11 -8 11 -12z m-3541 -12 c0 -8 -7 -15 -15 -15
-16 0 -20 12 -8 23 11 12 23 8 23 -8z m4025 -15 c-5 -8 -11 -8 -17 -2 -6 6 -7
16 -3 22 5 8 11 8 17 2 6 -6 7 -16 3 -22z m1505 26 c0 -3 -4 -8 -10 -11 -5 -3
-10 -1 -10 4 0 6 5 11 10 11 6 0 10 -2 10 -4z m-4970 -14 c0 -10 -21 -32 -31
-32 -4 0 -9 9 -12 20 -4 16 0 20 19 20 13 0 24 -4 24 -8z m150 -2 c0 -5 -2
-10 -4 -10 -3 0 -8 5 -11 10 -3 6 -1 10 4 10 6 0 11 -4 11 -10z m2770 -9 c0
-17 -37 -37 -49 -26 -2 3 1 5 7 5 20 0 13 20 -10 30 -20 8 -18 9 15 9 30 1 37
-3 37 -18z m-3213 -17 c3 -8 -1 -22 -10 -31 -13 -14 -16 -13 -22 6 -11 35 19
59 32 25z m481 2 c-7 -8 -16 -12 -21 -9 -11 7 2 23 19 23 12 0 12 -2 2 -14z
m43 -18 c-21 -35 -45 -51 -35 -24 3 9 11 16 16 16 6 0 7 7 4 16 -3 8 -2 12 3
9 5 -3 12 -1 16 5 3 5 9 10 12 10 3 0 -4 -15 -16 -32z m2975 -11 l1 -36 -19
25 c-11 13 -17 32 -14 40 10 27 31 9 32 -29z m-65 16 c13 -16 12 -17 -3 -4
-10 7 -18 15 -18 17 0 8 8 3 21 -13z m-91 -3 c0 -5 -6 -10 -14 -10 -8 0 -18 5
-21 10 -3 6 3 10 14 10 12 0 21 -4 21 -10z m-2901 -3 c-2 -1 -13 -9 -24 -17
-19 -14 -19 -14 -6 3 7 9 18 17 24 17 6 0 8 -1 6 -3z m2813 -50 c-2 -4 -12 3
-23 17 -26 33 -24 40 4 13 13 -12 22 -26 19 -30z m1108 43 c0 -5 -4 -10 -10
-10 -5 0 -10 5 -10 10 0 6 5 10 10 10 6 0 10 -4 10 -10z m-4560 -10 c0 -5 -4
-10 -10 -10 -5 0 -10 5 -10 10 0 6 5 10 10 10 6 0 10 -4 10 -10z m3887 -16
c-9 -9 -28 6 -21 18 4 6 10 6 17 -1 6 -6 8 -13 4 -17z m-3222 6 c3 -5 1 -10
-4 -10 -6 0 -11 5 -11 10 0 6 2 10 4 10 3 0 8 -4 11 -10z m-180 -20 c3 -5 1
-10 -4 -10 -6 0 -11 5 -11 10 0 6 2 10 4 10 3 0 8 -4 11 -10z m-102 -15 c1 -5
-6 -11 -15 -13 -11 -2 -18 3 -18 13 0 17 30 18 33 0z m3127 -6 c0 -24 -23 -21
-28 4 -2 10 3 17 12 17 10 0 16 -9 16 -21z m-3554 -10 c9 -15 -11 -33 -30 -26
-9 4 -13 13 -10 22 7 17 30 20 40 4z m714 1 c-8 -5 -22 -10 -30 -10 -13 0 -13
1 0 10 8 5 22 10 30 10 13 0 13 -1 0 -10z m2620 0 c0 -5 -2 -10 -4 -10 -2 0
-12 -3 -22 -7 -16 -6 -17 -5 -4 10 17 19 30 22 30 7z m655 -9 c0 -8 -9 -17
-21 -22 -18 -6 -21 -4 -19 14 3 30 3 29 23 25 9 -2 17 -9 17 -17z m-3545 -1
c0 -5 -5 -10 -11 -10 -5 0 -7 5 -4 10 3 6 8 10 11 10 2 0 4 -4 4 -10z m3075
-8 c-3 -3 -11 0 -18 7 -9 10 -8 11 6 5 10 -3 15 -9 12 -12z m-2858 2 c-3 -3
-12 -4 -19 -1 -8 3 -5 6 6 6 11 1 17 -2 13 -5z m2692 -35 c-17 -32 -26 -29
-15 6 6 20 13 29 18 22 3 -6 2 -19 -3 -28z m-3236 -5 c-7 -18 -17 -18 -32 -1
-8 10 -7 17 1 25 15 15 39 -3 31 -24z m257 -3 c0 -6 -5 -11 -11 -11 -5 0 -7
-4 -4 -10 10 -16 -15 -12 -32 6 -14 14 -14 17 3 33 15 14 21 15 31 5 7 -7 13
-17 13 -23z m3242 19 c17 -16 19 -22 8 -35 -14 -16 -45 -21 -35 -5 3 5 0 7 -9
4 -11 -4 -13 0 -9 15 3 12 10 21 15 21 5 0 6 5 3 10 -10 17 4 11 27 -10z
m-3079 -7 c-21 -8 -15 -23 10 -24 l22 -2 -23 -4 c-12 -2 -20 -9 -16 -14 3 -5
9 -7 14 -4 4 3 5 -5 2 -17 -5 -19 -7 -20 -10 -5 -2 9 -8 17 -14 17 -5 0 -7 8
-4 17 6 14 3 14 -15 -3 l-22 -19 8 25 c4 14 8 25 9 25 0 0 10 5 21 11 11 7 22
9 25 6 3 -2 -1 -7 -7 -9z m2929 -42 c10 -20 31 -51 47 -69 17 -18 27 -40 24
-48 -3 -8 0 -14 6 -14 6 0 11 -5 11 -11 0 -8 -4 -9 -13 0 -21 17 -29 0 -10
-21 9 -10 11 -18 5 -18 -6 0 -9 -10 -7 -22 l4 -21 -19 21 c-25 26 -25 33 -2
26 9 -3 1 9 -18 26 -23 21 -27 28 -12 21 67 -35 39 49 -49 146 -35 39 -36 44
-6 30 12 -5 30 -26 39 -46z m401 51 c3 -4 -3 -17 -13 -29 l-18 -22 -5 21 c-4
12 -4 25 -1 30 6 10 31 11 37 0z m-128 -22 c3 -5 1 -10 -4 -10 -6 0 -11 5 -11
10 0 6 2 10 4 10 3 0 8 -4 11 -10z m-3836 -17 c17 -10 31 -24 31 -30 0 -18
-19 -16 -26 2 -4 10 -13 13 -25 10 -24 -8 -40 2 -32 20 7 19 15 19 52 -2z
m754 -23 l22 -9 -22 -7 c-13 -3 -23 -14 -23 -23 -1 -14 -2 -14 -11 2 -8 14
-14 16 -25 6 -11 -9 -14 -8 -14 2 0 8 9 20 20 27 12 7 17 18 14 29 -5 16 -4
16 6 0 6 -10 21 -22 33 -27z m2665 18 c7 -9 18 -16 25 -14 6 1 9 1 5 -1 -5 -3
-8 -9 -8 -14 0 -6 5 -7 10 -4 6 3 10 -4 10 -16 0 -18 -3 -20 -12 -11 -16 16
-25 15 -32 -3 -8 -22 3 -43 21 -41 20 3 44 36 37 50 -3 6 2 2 11 -9 14 -18 14
-20 1 -23 -18 -4 -21 -28 -5 -37 6 -5 4 -12 -8 -22 -10 -8 -11 -11 -3 -7 8 4
12 4 8 -1 -5 -5 4 -24 18 -42 14 -19 23 -37 20 -40 -3 -4 -7 -4 -9 -2 -1 2
-16 23 -32 47 -17 26 -34 41 -42 38 -8 -3 -12 -2 -9 3 8 12 -19 45 -32 38 -5
-4 -8 -17 -4 -29 4 -15 2 -19 -7 -13 -8 4 -10 17 -6 32 5 20 3 24 -9 20 -11
-4 -18 2 -22 19 -5 19 -11 24 -26 21 -27 -8 -65 11 -71 35 -5 16 -3 17 10 6
13 -10 17 -10 20 -1 3 9 11 6 26 -8 12 -11 23 -15 25 -9 5 15 28 12 43 -7 12
-15 12 -16 -3 -10 -12 4 -15 2 -11 -9 6 -16 19 -18 28 -4 4 6 10 8 15 5 4 -3
7 3 6 12 -2 10 -8 18 -14 18 -6 0 -14 3 -18 8 -4 4 -2 7 5 7 8 0 11 8 8 20 -6
23 13 22 31 -2z m227 12 c3 -5 -1 -10 -10 -10 -9 0 -13 5 -10 10 3 6 8 10 10
10 2 0 7 -4 10 -10z m548 -5 c7 -18 -9 -29 -30 -21 -9 4 -21 -1 -28 -11 -8
-10 -17 -14 -21 -10 -9 9 44 56 62 57 7 0 14 -7 17 -15z m-3816 -9 c-2 -5 -11
-14 -20 -20 -19 -12 -44 5 -33 23 9 13 57 10 53 -3z m128 4 c-27 -12 -35 -12
-35 0 0 6 12 10 28 9 24 0 25 -1 7 -9z m60 0 c-3 -5 -14 -10 -23 -10 -15 0
-15 2 -2 10 20 13 33 13 25 0z m3025 0 c0 -5 -2 -10 -4 -10 -3 0 -8 5 -11 10
-3 6 -1 10 4 10 6 0 11 -4 11 -10z m224 -5 c8 -21 -20 -31 -40 -15 -12 11 -12
15 -2 21 20 13 35 11 42 -6z m-3924 -15 c0 -5 -4 -10 -10 -10 -5 0 -10 5 -10
10 0 6 5 10 10 10 6 0 10 -4 10 -10z m3771 -23 c-8 -8 -11 -7 -11 4 0 20 13
34 18 19 3 -7 -1 -17 -7 -23z m609 23 c0 -5 -4 -10 -10 -10 -5 0 -10 5 -10 10
0 6 5 10 10 10 6 0 10 -4 10 -10z m-5050 -15 c0 -8 -4 -15 -9 -15 -13 0 -22
16 -14 24 11 11 23 6 23 -9z m5730 -6 c0 -5 -7 -9 -15 -9 -15 0 -20 12 -9 23
8 8 24 -1 24 -14z m-4465 1 c3 -6 -1 -7 -9 -4 -11 4 -16 0 -16 -12 0 -9 -3
-15 -6 -11 -9 8 3 37 15 37 5 0 13 -4 16 -10z m-630 -30 c0 -8 -8 -16 -17 -18
-13 -2 -18 3 -18 18 0 15 5 20 18 18 9 -2 17 -10 17 -18z m4469 12 c9 -14 -12
-35 -28 -29 -23 9 -20 37 3 37 11 0 22 -4 25 -8z m-3994 -22 c0 -5 -4 -10 -10
-10 -5 0 -10 5 -10 10 0 6 5 10 10 10 6 0 10 -4 10 -10z m176 -65 c-28 -41
-35 -39 -12 3 8 15 18 36 22 47 6 17 8 17 11 4 2 -9 -7 -34 -21 -54z m3324 55
c0 -5 -2 -10 -4 -10 -3 0 -8 5 -11 10 -3 6 -1 10 4 10 6 0 11 -4 11 -10z
m-4630 -4 c0 -11 -19 -15 -25 -6 -3 5 1 10 9 10 9 0 16 -2 16 -4z m5760 -6 c0
-5 -4 -10 -10 -10 -5 0 -10 5 -10 10 0 6 5 10 10 10 6 0 10 -4 10 -10z m-1418
-14 c7 4 8 2 4 -5 -9 -13 -26 -5 -25 12 0 9 2 8 6 -1 2 -6 10 -9 15 -6z
m-4102 -16 c0 -5 -4 -10 -9 -10 -6 0 -13 5 -16 10 -3 6 1 10 9 10 9 0 16 -4
16 -10z m5282 -5 c0 -5 -5 -11 -11 -13 -6 -2 -11 4 -11 13 0 9 5 15 11 13 6
-2 11 -8 11 -13z m-4167 -14 c-3 -6 -16 -16 -28 -22 -20 -10 -20 -9 3 14 25
24 38 28 25 8z m3370 -10 c-6 -5 -25 10 -25 20 0 5 6 4 14 -3 8 -7 12 -15 11
-17z m-3285 9 c0 -5 -2 -10 -4 -10 -3 0 -8 5 -11 10 -3 6 -1 10 4 10 6 0 11
-4 11 -10z m2870 -5 c-7 -8 -17 -15 -22 -15 -6 0 -5 7 2 15 7 8 17 15 22 15 6
0 5 -7 -2 -15z m-2911 -17 c-5 -9 -16 -15 -24 -12 -19 8 -9 30 14 30 15 0 17
-4 10 -18z m2981 0 c0 -13 -43 -6 -47 8 -2 7 6 10 22 7 14 -3 25 -10 25 -15z
m-3405 2 c3 -5 1 -10 -4 -10 -6 0 -11 5 -11 10 0 6 2 10 4 10 3 0 8 -4 11 -10z
m3235 -10 c0 -5 -2 -10 -4 -10 -3 0 -8 5 -11 10 -3 6 -1 10 4 10 6 0 11 -4 11
-10z m559 -13 c-29 -28 -35 -27 -17 2 7 12 19 21 27 21 9 0 6 -8 -10 -23z
m-3426 6 c-7 -2 -13 -11 -13 -18 0 -8 -4 -16 -9 -19 -12 -8 -8 27 4 36 6 4 15
7 20 7 6 0 4 -3 -2 -6z m2993 -11 c12 -10 27 -28 34 -41 9 -19 14 -21 21 -10
5 8 6 -2 2 -26 -6 -45 -23 -72 -19 -31 2 15 -1 29 -5 32 -5 3 -9 14 -9 24 0
10 -14 30 -31 44 -17 14 -27 26 -22 26 4 -1 17 -9 29 -18z m-3161 -2 c3 -5 1
-10 -4 -10 -6 0 -11 5 -11 10 0 6 2 10 4 10 3 0 8 -4 11 -10z m125 0 c0 -5 -6
-10 -14 -10 -7 0 -20 -10 -28 -22 -9 -14 -19 -19 -27 -13 -10 5 -6 14 15 31
31 25 54 31 54 14z m3177 -3 c4 -8 17 -17 27 -21 14 -5 16 -10 8 -18 -8 -8
-19 -4 -41 13 -16 13 -30 27 -30 32 -1 12 28 8 36 -6z m-3953 -18 c-3 -5 -10
-7 -15 -3 -5 3 -7 10 -3 15 3 5 10 7 15 3 5 -3 7 -10 3 -15z m4711 11 c3 -5
-1 -10 -10 -10 -9 0 -13 5 -10 10 3 6 8 10 10 10 2 0 7 -4 10 -10z m-3797 -17
c-6 -7 -12 -13 -13 -13 -2 0 -5 6 -8 13 -3 7 3 13 14 13 13 0 15 -3 7 -13z
m-1128 -14 c0 -25 -33 -22 -38 4 -2 12 3 17 17 17 15 0 21 -6 21 -21z m510 11
c0 -5 -4 -10 -10 -10 -5 0 -10 5 -10 10 0 6 5 10 10 10 6 0 10 -4 10 -10z
m385 0 c3 -5 1 -10 -4 -10 -6 0 -11 5 -11 10 0 6 2 10 4 10 3 0 8 -4 11 -10z
m3735 0 c0 -5 -4 -10 -10 -10 -5 0 -10 5 -10 10 0 6 5 10 10 10 6 0 10 -4 10
-10z m528 -13 c2 -12 -3 -17 -17 -17 -12 0 -21 6 -21 13 0 31 32 34 38 4z
m-4137 -24 c-12 -20 -14 -14 -5 12 4 9 9 14 11 11 3 -2 0 -13 -6 -23z m-144 2
c0 -8 -4 -15 -9 -15 -10 0 -11 14 -1 23 9 10 10 9 10 -8z m189 0 c-21 -16 -32
-13 -21 4 3 6 14 11 23 11 15 -1 15 -2 -2 -15z m3187 0 c4 -8 2 -17 -3 -20 -6
-4 -10 3 -10 14 0 25 6 27 13 6z m-3993 -4 c0 -17 -18 -21 -24 -6 -3 9 0 15 9
15 8 0 15 -4 15 -9z m4622 -6 c0 -5 -5 -11 -11 -13 -6 -2 -11 4 -11 13 0 9 5
15 11 13 6 -2 11 -8 11 -13z m-4182 -16 c0 -5 -4 -9 -10 -9 -5 0 -10 7 -10 16
0 8 5 12 10 9 6 -3 10 -10 10 -16z m-1090 1 c0 -5 -7 -10 -15 -10 -8 0 -15 5
-15 10 0 6 7 10 15 10 8 0 15 -4 15 -10z m1374 -14 c-9 -15 -21 -23 -30 -19
-12 4 -8 10 13 24 15 9 29 18 31 18 1 1 -5 -10 -14 -23z m3456 8 c0 -8 -4 -12
-10 -9 -5 3 -10 10 -10 16 0 5 5 9 10 9 6 0 10 -7 10 -16z m1100 8 c0 -13 -12
-22 -22 -16 -10 6 -1 24 13 24 5 0 9 -4 9 -8z m-5320 -16 c0 -18 -16 -29 -30
-21 -13 8 -1 35 16 35 8 0 14 -6 14 -14z m4710 -6 c0 -11 -7 -20 -15 -20 -8 0
-15 9 -15 20 0 11 7 20 15 20 8 0 15 -9 15 -20z m-762 -15 c-3 -3 -9 2 -12 12
-6 14 -5 15 5 6 7 -7 10 -15 7 -18z m-4219 -31 c-9 -11 -15 -12 -25 -3 -11 9
-12 15 -3 25 9 11 15 12 25 3 11 -9 12 -15 3 -25z m854 -1 c-6 -14 -8 -14 -14
3 -12 30 -10 37 5 24 8 -6 12 -19 9 -27z m3248 10 c13 -16 12 -17 -3 -4 -10 7
-18 15 -18 17 0 8 8 3 21 -13z m1157 0 c5 -18 -28 -29 -38 -12 -5 7 -6 17 -3
22 7 12 35 5 41 -10z m-4334 -9 c4 -9 1 -23 -6 -31 -10 -13 -14 -12 -25 3 -7
10 -13 24 -13 31 0 19 37 16 44 -3z m3410 7 c9 -14 -4 -41 -19 -41 -18 0 -26
15 -19 34 7 17 29 21 38 7z m46 -1 c0 -5 -2 -10 -4 -10 -3 0 -8 5 -11 10 -3 6
-1 10 4 10 6 0 11 -4 11 -10z m-3340 -10 c0 -5 -2 -10 -4 -10 -3 0 -8 5 -11
10 -3 6 -1 10 4 10 6 0 11 -4 11 -10z m3176 -37 c15 -27 30 -50 33 -53 15 -12
51 -70 44 -70 -8 1 -108 129 -108 139 0 3 -4 12 -8 19 -5 6 -4 12 1 12 6 0 23
-21 38 -47z m-4336 16 c0 -5 -7 -9 -15 -9 -15 0 -20 12 -9 23 8 8 24 -1 24
-14z m500 0 c0 -5 -4 -9 -10 -9 -5 0 -10 7 -10 16 0 8 5 12 10 9 6 -3 10 -10
10 -16z m4480 0 c0 -5 -4 -9 -10 -9 -5 0 -10 7 -10 16 0 8 5 12 10 9 6 -3 10
-10 10 -16z m508 0 c-2 -6 -8 -10 -13 -10 -5 0 -11 4 -13 10 -2 6 4 11 13 11
9 0 15 -5 13 -11z m-5138 -17 c0 -26 -11 -34 -27 -21 -10 9 -10 15 -2 25 16
19 29 17 29 -4z m4040 4 c0 -3 -4 -8 -10 -11 -5 -3 -10 -1 -10 4 0 6 5 11 10
11 6 0 10 -2 10 -4z m753 -11 c1 -5 -6 -11 -15 -13 -11 -2 -18 3 -18 13 0 17
30 18 33 0z m-4025 -20 c-6 -14 -13 -23 -15 -21 -5 5 15 46 22 46 3 0 -1 -11
-7 -25z m-310 3 c7 -9 5 -19 -8 -35 -20 -25 -30 -21 -30 12 0 35 19 46 38 23z
m202 -3 c0 -8 -6 -15 -14 -15 -17 0 -28 14 -19 24 12 12 33 6 33 -9z m3476 4
c3 -6 0 -15 -7 -20 -14 -8 -32 9 -23 23 7 11 22 10 30 -3z m204 -29 c0 -34 -7
-38 -26 -12 -19 25 -17 42 6 42 16 0 20 -7 20 -30z m-3609 -23 c-10 -9 -11 -8
-5 6 3 10 9 15 12 12 3 -3 0 -11 -7 -18z m93 17 c12 -5 13 -10 5 -25 -17 -33
-58 -18 -45 16 6 16 16 18 40 9z m3151 -20 c0 -27 -30 -29 -47 -2 -15 22 -14
23 16 22 23 -1 31 -6 31 -20z m-4050 7 c3 -5 1 -12 -5 -16 -5 -3 -10 1 -10 9
0 18 6 21 15 7z m4925 -1 c0 -5 -4 -10 -10 -10 -5 0 -10 5 -10 10 0 6 5 10 10
10 6 0 10 -4 10 -10z m-5652 -22 c-2 -13 -10 -23 -18 -23 -8 0 -16 10 -18 23
-3 17 2 22 18 22 16 0 21 -5 18 -22z m6402 3 c0 -26 -17 -36 -35 -21 -18 15
-8 40 16 40 12 0 19 -7 19 -19z m-5620 -21 c0 -5 -4 -10 -9 -10 -6 0 -13 5
-16 10 -3 6 1 10 9 10 9 0 16 -4 16 -10z m4822 -5 c0 -5 -5 -11 -11 -13 -6 -2
-11 4 -11 13 0 9 5 15 11 13 6 -2 11 -8 11 -13z m-3996 -34 c-11 -18 -34 -1
-29 20 5 18 7 19 21 6 8 -8 11 -20 8 -26z m-335 10 c6 -48 5 -50 -18 -49 -27
3 -44 45 -23 58 14 8 39 3 41 -9z m3869 -22 c0 -11 -6 -19 -14 -19 -8 0 -18
-5 -21 -11 -4 -6 3 -9 20 -7 33 4 57 -24 37 -44 -26 -26 -89 40 -75 80 12 33
25 43 39 31 8 -6 14 -20 14 -30z m-4260 21 c0 -5 -4 -10 -10 -10 -5 0 -10 5
-10 10 0 6 5 10 10 10 6 0 10 -4 10 -10z m4620 0 c0 -5 -7 -10 -16 -10 -8 0
-12 5 -9 10 3 6 10 10 16 10 5 0 9 -4 9 -10z m200 -10 c0 -5 -5 -10 -11 -10
-5 0 -7 5 -4 10 3 6 8 10 11 10 2 0 4 -4 4 -10z m-4300 -40 c0 -5 -5 -10 -11
-10 -5 0 -8 -4 -4 -9 8 -15 -15 -25 -28 -12 -8 8 -8 11 1 11 7 0 12 7 12 15 0
8 7 15 15 15 8 0 15 -4 15 -10z m3539 -12 c16 -16 23 -18 34 -10 8 7 17 9 20
5 11 -10 8 -23 -4 -23 -11 0 -39 -24 -39 -34 0 -3 7 -3 15 0 11 5 15 -1 15
-17 0 -18 -3 -20 -9 -10 -5 7 -13 11 -18 8 -4 -3 -13 6 -20 19 -6 13 -7 22 -2
18 14 -9 10 15 -7 41 -20 31 -12 32 15 3z m46 12 c-3 -5 -10 -10 -16 -10 -5 0
-9 5 -9 10 0 6 7 10 16 10 8 0 12 -4 9 -10z m1265 6 c0 -3 -4 -8 -10 -11 -5
-3 -10 -1 -10 4 0 6 5 11 10 11 6 0 10 -2 10 -4z m-4999 -16 c18 0 8 -27 -15
-39 -28 -15 -46 -8 -46 19 0 20 17 31 38 24 8 -2 18 -4 23 -4z m177 -10 c-11
-17 -10 -22 0 -29 11 -7 11 -9 -1 -14 -7 -3 -20 -1 -28 3 -11 7 -9 14 11 34
28 31 35 33 18 6z m62 10 c0 -5 -4 -10 -10 -10 -5 0 -10 5 -10 10 0 6 5 10 10
10 6 0 10 -4 10 -10z m3400 -6 c0 -8 -4 -12 -10 -9 -5 3 -10 10 -10 16 0 5 5
9 10 9 6 0 10 -7 10 -16z m-3724 -60 c-7 -19 -25 -18 -33 1 -3 9 2 22 13 30
16 12 19 12 22 -1 2 -8 1 -22 -2 -30z m4054 21 c7 -8 9 -22 6 -31 -5 -13 -9
-14 -21 -4 -16 13 -21 50 -6 50 5 0 14 -7 21 -15z m-4512 -13 c2 -7 -3 -12
-12 -12 -9 0 -16 7 -16 16 0 17 22 14 28 -4z m4970 0 c2 -7 -3 -12 -12 -12 -9
0 -16 7 -16 16 0 17 22 14 28 -4z m-4277 -17 c1 -17 -18 -17 -25 0 -4 11 -1
15 10 13 8 -2 15 -7 15 -13z m3494 5 c-3 -5 -12 -10 -18 -10 -7 0 -6 4 3 10
19 12 23 12 15 0z m-3455 -40 c0 -5 -4 -10 -10 -10 -5 0 -10 5 -10 10 0 6 5
10 10 10 6 0 10 -4 10 -10z m3500 0 c0 -5 -4 -10 -10 -10 -5 0 -10 5 -10 10 0
6 5 10 10 10 6 0 10 -4 10 -10z m1500 -14 c0 -3 -4 -8 -10 -11 -5 -3 -10 -1
-10 4 0 6 5 11 10 11 6 0 10 -2 10 -4z m-7427 -35 c-3 -13 1 -21 14 -24 15 -4
15 -5 1 -6 -20 -1 -32 15 -24 34 8 22 15 18 9 -4z m8344 -16 c-4 -8 -14 -14
-24 -14 -17 1 -17 2 0 6 9 2 17 12 17 20 0 9 3 14 6 10 4 -3 4 -13 1 -22z
m-477 5 c0 -5 -2 -10 -4 -10 -3 0 -8 5 -11 10 -3 6 -1 10 4 10 6 0 11 -4 11
-10z m-6130 -31 c0 -5 -7 -9 -15 -9 -15 0 -20 12 -9 23 8 8 24 -1 24 -14z
m4885 -9 c-5 -8 -11 -8 -17 -2 -6 6 -7 16 -3 22 5 8 11 8 17 2 6 -6 7 -16 3
-22z m-4345 6 c0 -8 3 -22 6 -31 5 -13 2 -16 -12 -13 -16 3 -22 23 -15 53 3
12 21 4 21 -9z m3806 -23 c4 -22 -21 -39 -31 -22 -9 14 5 51 17 47 6 -2 13
-13 14 -25z m-3826 -54 c0 -5 -7 -9 -15 -9 -15 0 -20 12 -9 23 8 8 24 -1 24
-14z m200 12 c0 -4 -9 -16 -20 -26 -15 -14 -23 -16 -32 -7 -8 8 -8 15 0 24 12
15 52 21 52 9z m3454 -1 c29 -11 34 -28 11 -37 -15 -5 -44 21 -45 40 0 9 4 9
34 -3z m191 -20 c-5 -8 -11 -8 -17 -2 -6 6 -7 16 -3 22 5 8 11 8 17 2 6 -6 7
-16 3 -22z m390 -100 c-3 -5 -10 -10 -16 -10 -5 0 -9 5 -9 10 0 6 7 10 16 10
8 0 12 -4 9 -10z m-4489 -72 c4 -7 3 -8 -4 -4 -7 4 -12 2 -12 -5 0 -7 -3 -10
-6 -6 -6 5 3 27 11 27 2 0 7 -5 11 -12z"/>
<path d="M3880 4990 c0 -5 5 -10 10 -10 6 0 10 5 10 10 0 6 -4 10 -10 10 -5 0
-10 -4 -10 -10z"/>
<path d="M5247 4901 c3 -12 9 -21 14 -21 14 0 11 16 -5 29 -12 10 -13 8 -9 -8z"/>
<path d="M3260 4905 c-7 -9 -11 -18 -8 -20 7 -8 38 5 38 15 0 17 -18 19 -30 5z"/>
<path d="M4311 4837 c-29 -15 -24 -32 9 -32 24 0 30 -5 30 -25 0 -14 -37 -13
-42 1 -5 15 -71 20 -89 7 -11 -7 -11 -11 -1 -15 6 -2 12 -10 12 -17 0 -7 13
-13 31 -13 25 0 30 4 26 19 -7 24 -4 23 32 -13 17 -17 28 -35 25 -41 -4 -7 4
-8 23 -4 23 5 32 3 37 -9 3 -9 4 -21 0 -26 -3 -5 -1 -9 5 -9 9 0 31 31 31 44
0 3 -11 11 -24 18 -23 12 -23 15 -9 33 15 20 15 20 8 -2 -4 -17 -2 -23 8 -23
9 0 17 -3 19 -8 6 -15 61 -52 69 -46 5 3 9 -2 9 -10 0 -20 55 -57 74 -50 22 9
20 21 -5 27 -18 5 -20 11 -15 34 4 15 3 24 -1 18 -12 -15 -56 -18 -47 -2 5 8
2 8 -9 -2 -9 -7 -17 -9 -17 -4 0 13 47 53 62 53 15 0 4 11 -14 14 -7 1 -19 5
-27 10 -9 6 -21 -1 -37 -20 -13 -16 -23 -22 -22 -14 2 8 12 22 23 31 20 17 20
17 -7 30 -22 10 -31 9 -45 -2 -14 -11 -15 -11 -9 0 5 8 3 17 -5 22 -20 13 -31
11 -24 -3 4 -7 -2 -3 -12 9 -13 17 -22 20 -33 13 -8 -5 -19 -10 -25 -10 -5 0
-3 4 5 10 23 14 7 20 -19 7z"/>
<path d="M4658 4804 c-8 -13 2 -64 13 -64 11 0 11 27 0 54 -4 11 -10 15 -13
10z"/>
<path d="M4720 4740 c-8 -5 -18 -6 -22 -4 -4 3 -8 0 -8 -6 0 -7 6 -10 13 -7 6
2 18 -3 25 -12 12 -15 13 -14 8 1 -3 9 0 18 7 21 7 2 7 6 1 10 -5 3 -16 2 -24
-3z"/>
<path d="M4195 4730 c-3 -5 2 -10 12 -10 14 0 15 -2 4 -9 -7 -5 -10 -14 -6
-21 5 -8 14 -5 30 10 19 18 23 19 28 6 4 -9 1 -13 -6 -10 -7 2 -26 -9 -42 -26
-21 -22 -25 -30 -13 -30 9 0 19 6 21 13 4 9 6 9 6 -1 1 -7 -6 -15 -14 -18 -8
-4 -15 -17 -15 -31 0 -13 4 -21 10 -18 6 3 7 -1 4 -9 -4 -12 0 -16 16 -16 18
0 20 -3 11 -14 -9 -10 -8 -15 3 -19 9 -4 17 2 21 14 4 10 15 19 25 19 14 0 18
5 13 17 -4 11 -3 14 5 9 19 -11 14 34 -5 58 -10 12 -11 15 -3 9 8 -7 18 -13
23 -13 5 0 5 6 -1 13 -12 14 -11 68 1 60 4 -2 7 1 7 7 0 16 -33 26 -38 11 -3
-9 -7 -9 -18 0 -11 9 -18 9 -29 -1 -10 -9 -15 -9 -15 -1 0 14 -27 15 -35 1z"/>
<path d="M4852 4729 c-19 -7 -21 -12 -12 -29 14 -26 18 -25 31 6 12 32 10 34
-19 23z"/>
<path d="M3662 4696 c1 -20 7 -36 13 -36 14 0 11 63 -4 68 -8 3 -11 -8 -9 -32z"/>
<path d="M4640 4725 c0 -8 71 -37 77 -32 3 4 -7 12 -23 18 -33 14 -54 19 -54
14z"/>
<path d="M4767 4693 c5 -12 2 -15 -10 -10 -11 4 -17 1 -17 -7 0 -15 16 -30 42
-39 13 -5 15 -2 11 11 -5 14 -4 15 8 6 8 -6 23 -14 33 -18 19 -7 19 -6 2 13
-10 11 -21 20 -25 19 -20 -2 -30 4 -25 16 3 7 -2 16 -10 19 -11 4 -13 1 -9
-10z"/>
<path d="M3970 4690 c-14 -4 -21 -8 -17 -9 14 -2 -13 -41 -28 -41 -20 0 -19
-16 1 -24 22 -9 87 43 74 59 -5 6 -7 15 -3 18 7 8 7 8 -27 -3z"/>
<path d="M4440 4679 c0 -5 5 -7 10 -4 6 3 10 8 10 11 0 2 -4 4 -10 4 -5 0 -10
-5 -10 -11z"/>
<path d="M3686 4651 c-17 -19 -17 -19 2 -14 12 3 23 11 26 19 8 20 -8 17 -28
-5z"/>
<path d="M3801 4648 c-6 -13 -9 -15 -7 -5 7 24 -11 22 -19 -2 -3 -11 -11 -18
-18 -15 -20 7 -80 -35 -73 -52 3 -8 2 -12 -4 -9 -10 6 -30 -25 -30 -47 0 -11
2 -11 9 0 5 9 8 3 9 -17 0 -17 -4 -31 -9 -31 -5 0 -9 7 -9 15 0 18 -20 20 -21
3 -2 -32 -9 -53 -19 -56 -14 -5 -2 -22 16 -22 8 0 20 11 26 25 6 14 16 24 21
22 14 -4 87 65 80 76 -4 6 -10 0 -15 -14 -7 -19 -11 -21 -18 -9 -8 13 -10 13
-10 -1 0 -9 -6 -22 -13 -28 -11 -8 -13 -6 -11 12 1 12 3 31 3 42 1 16 3 17 11
5 7 -12 10 -11 16 5 5 11 3 20 -4 23 -7 2 -12 8 -12 13 0 4 7 6 15 3 8 -4 15
-13 15 -21 0 -11 7 -10 30 7 17 12 30 17 30 11 0 -5 -4 -13 -10 -16 -5 -3 -10
-13 -10 -21 0 -11 9 -8 34 11 29 22 34 32 33 61 -3 46 -20 61 -36 32z"/>
<path d="M4443 4660 c-14 -6 -21 -15 -17 -24 5 -12 9 -13 25 -3 19 12 34 38
21 36 -4 0 -17 -4 -29 -9z"/>
<path d="M4165 4650 c-3 -5 -1 -10 4 -10 6 0 11 5 11 10 0 6 -2 10 -4 10 -3 0
-8 -4 -11 -10z"/>
<path d="M4340 4650 c0 -5 5 -10 10 -10 6 0 10 5 10 10 0 6 -4 10 -10 10 -5 0
-10 -4 -10 -10z"/>
<path d="M3880 4640 c0 -5 5 -10 10 -10 6 0 10 5 10 10 0 6 -4 10 -10 10 -5 0
-10 -4 -10 -10z"/>
<path d="M3976 4624 c-16 -14 -35 -23 -42 -20 -8 3 -14 -1 -14 -8 0 -14 21
-26 43 -26 7 0 6 4 -3 10 -13 8 -13 10 3 11 35 3 87 25 87 38 0 8 -24 21 -38
21 -4 0 -20 -12 -36 -26z"/>
<path d="M4470 4628 l-20 -22 22 -23 c15 -16 25 -20 32 -13 12 12 0 26 -29 33
-15 4 -14 5 7 6 15 0 30 -4 33 -10 4 -6 13 -8 21 -5 17 7 18 -4 1 -25 -7 -9
-19 -14 -27 -11 -13 5 -13 3 -1 -11 11 -14 11 -20 1 -32 -9 -10 -9 -15 -1 -15
6 0 11 4 11 8 0 12 58 13 66 1 3 -5 10 -7 15 -4 12 8 12 -2 -1 -25 -7 -14 -6
-23 6 -35 9 -9 19 -13 23 -9 3 4 0 9 -6 11 -7 3 -13 9 -13 14 0 5 11 4 25 -1
20 -7 25 -6 25 5 0 9 -9 15 -22 15 -17 0 -19 3 -10 12 14 14 16 28 2 28 -5 0
-26 11 -46 25 -25 17 -31 25 -19 25 10 0 27 -7 37 -17 10 -9 21 -13 26 -9 4 4
-2 14 -12 22 -16 11 -17 17 -8 26 9 9 12 8 12 -5 0 -10 8 -17 18 -17 9 0 23
-9 30 -20 7 -11 19 -20 27 -20 8 0 15 -5 15 -11 0 -5 5 -7 10 -4 14 9 -7 35
-26 35 -8 0 -14 6 -15 13 0 6 -13 22 -29 35 -24 19 -33 21 -50 12 -22 -12 -47
-3 -70 24 -17 22 -36 20 -60 -6z m80 -98 c0 -5 -2 -10 -4 -10 -3 0 -8 5 -11
10 -3 6 -1 10 4 10 6 0 11 -4 11 -10z"/>
<path d="M4620 4640 c0 -5 5 -10 10 -10 6 0 10 5 10 10 0 6 -4 10 -10 10 -5 0
-10 -4 -10 -10z"/>
<path d="M3637 4634 c-3 -3 -3 -12 0 -20 3 -8 2 -26 -1 -40 -5 -20 -10 -24
-19 -15 -12 12 -31 15 -23 3 2 -4 -9 -17 -25 -27 -16 -11 -27 -24 -25 -30 2
-5 -3 -18 -12 -27 -8 -10 -11 -18 -6 -18 5 0 9 -18 9 -39 0 -47 9 -59 30 -41
16 13 21 35 6 26 -14 -9 -21 19 -12 51 8 27 12 25 24 -17 2 -10 10 -3 22 20
12 23 14 35 6 38 -7 2 -2 15 14 34 17 20 25 41 25 69 0 39 -2 44 -13 33z m-57
-128 c0 -3 -4 -8 -10 -11 -5 -3 -10 -1 -10 4 0 6 5 11 10 11 6 0 10 -2 10 -4z"/>
<path d="M4872 4611 c2 -17 1 -31 -4 -31 -5 0 -1 -11 8 -25 9 -14 21 -22 28
-18 6 3 8 3 4 -2 -4 -4 -3 -14 3 -22 8 -9 8 -13 1 -13 -8 0 -8 -9 -1 -30 6
-16 18 -30 26 -30 8 0 11 5 8 10 -9 15 4 12 21 -4 19 -20 18 -30 -3 -22 -10 4
-14 4 -10 0 4 -4 2 -13 -4 -20 -16 -20 -4 -43 19 -37 14 3 18 11 15 24 -3 10
0 19 6 19 6 0 11 -6 11 -12 0 -8 7 -5 15 6 17 22 20 61 5 51 -5 -3 -10 -15
-10 -26 0 -12 -4 -17 -11 -14 -6 4 -8 14 -5 22 3 8 1 11 -4 8 -6 -3 -10 -1
-10 4 0 6 5 11 11 11 8 0 7 5 -2 16 -18 22 -19 54 -1 54 18 0 7 13 -13 16 -8
1 -15 -2 -15 -7 0 -5 -9 -4 -19 3 -11 7 -17 18 -14 27 5 13 3 14 -8 4 -17 -17
-32 -16 -26 1 3 7 0 20 -6 27 -10 11 -9 11 5 1 9 -8 19 -9 22 -4 3 6 -6 18
-20 27 l-27 17 5 -31z m88 -111 c0 -5 -7 -7 -15 -4 -8 4 -15 8 -15 10 0 2 7 4
15 4 8 0 15 -4 15 -10z"/>
<path d="M3850 4614 c0 -8 5 -12 10 -9 6 3 10 10 10 16 0 5 -4 9 -10 9 -5 0
-10 -7 -10 -16z"/>
<path d="M4760 4620 c0 -5 5 -10 10 -10 6 0 10 -10 10 -21 0 -18 2 -20 16 -8
13 11 14 9 9 -13 -4 -15 -2 -29 4 -32 7 -4 11 1 11 13 0 12 3 21 8 21 4 0 7
-27 6 -60 -1 -33 2 -60 7 -60 8 0 14 40 10 63 -1 5 3 6 9 2 27 -17 -6 57 -34
77 -7 5 -7 8 -1 8 9 1 -51 30 -61 30 -2 0 -4 -4 -4 -10z"/>
<path d="M3575 4609 c-11 -16 1 -22 30 -15 24 6 36 26 15 26 -5 0 -10 -4 -10
-10 0 -5 -5 -10 -11 -10 -5 0 -7 5 -4 10 3 6 2 10 -4 10 -5 0 -13 -5 -16 -11z"/>
<path d="M3870 4593 c-20 -19 -22 -23 -7 -23 9 0 17 6 17 13 0 8 3 8 9 -2 5
-8 7 -20 4 -28 -6 -15 -2 -16 21 -7 20 8 21 24 2 24 -8 0 -16 11 -18 23 l-3
24 -25 -24z"/>
<path d="M4050 4611 c0 -5 -9 -12 -19 -16 -10 -3 -22 -16 -25 -28 -5 -17 -8
-19 -15 -8 -9 14 -31 6 -83 -32 -14 -11 -31 -16 -37 -13 -11 7 -36 -32 -27
-41 3 -3 10 5 15 18 5 13 10 18 10 12 1 -7 4 -12 9 -10 4 1 8 -2 10 -8 1 -5
-2 -10 -7 -10 -5 0 -13 -3 -17 -7 -4 -5 4 -8 17 -8 22 -1 21 -2 -8 -15 -21 -9
-33 -21 -33 -33 0 -23 26 -37 36 -20 4 6 3 8 -3 5 -6 -4 -13 0 -17 8 -3 9 3
19 17 27 12 6 23 11 25 10 1 -1 7 -2 13 -2 8 0 9 13 5 39 -3 24 -2 42 4 46 6
4 10 3 9 -2 -3 -20 2 -43 10 -43 5 0 7 10 3 22 -4 18 -2 20 16 16 12 -4 25 -1
29 4 3 6 1 8 -5 4 -6 -3 -14 -1 -17 5 -5 7 0 9 13 7 13 -2 34 10 56 31 36 35
44 51 26 51 -5 0 -10 -4 -10 -9z"/>
<path d="M4105 4609 c-4 -6 -5 -12 -2 -15 2 -3 7 2 10 11 7 17 1 20 -8 4z"/>
<path d="M4143 4605 c-7 -19 -5 -20 26 -30 20 -6 23 -4 18 10 -4 9 -7 21 -7
26 0 15 -30 10 -37 -6z"/>
<path d="M4350 4612 c0 -5 7 -17 15 -28 11 -14 14 -15 15 -4 0 13 1 13 10 0 5
-8 10 -10 10 -5 -1 15 -26 45 -39 45 -6 0 -11 -4 -11 -8z"/>
<path d="M4930 4605 c0 -8 7 -15 16 -15 14 0 14 3 4 15 -7 8 -14 15 -16 15 -2
0 -4 -7 -4 -15z"/>
<path d="M3507 4592 c-12 -2 -16 -9 -13 -19 3 -8 6 -20 6 -26 0 -7 7 1 15 17
17 33 17 34 -8 28z"/>
<path d="M4041 4556 c-25 -25 -42 -48 -39 -51 9 -9 91 71 87 84 -2 6 -24 -8
-48 -33z"/>
<path d="M4330 4580 c0 -5 5 -10 10 -10 6 0 10 5 10 10 0 6 -4 10 -10 10 -5 0
-10 -4 -10 -10z"/>
<path d="M4437 4584 c-4 -4 7 -20 24 -36 40 -39 51 -28 12 12 -16 17 -32 27
-36 24z"/>
<path d="M4089 4553 c-13 -16 -12 -17 4 -4 16 13 21 21 13 21 -2 0 -10 -8 -17
-17z"/>
<path d="M4726 4561 c-3 -5 1 -14 9 -21 12 -10 15 -10 15 3 0 19 -16 31 -24
18z"/>
<path d="M5040 4557 c0 -7 6 -19 13 -26 10 -11 10 -13 0 -7 -9 5 -13 0 -13
-14 0 -19 2 -20 28 -6 16 8 39 12 50 9 29 -7 28 13 0 31 -35 21 -78 29 -78 13z"/>
<path d="M3823 4548 c-18 -5 -33 -12 -33 -17 0 -17 13 -19 35 -5 12 8 30 12
39 8 9 -3 16 -1 16 6 0 6 -4 9 -9 6 -5 -4 -11 -2 -13 2 -1 5 -18 5 -35 0z"/>
<path d="M4425 4550 c3 -5 8 -10 11 -10 2 0 4 5 4 10 0 6 -5 10 -11 10 -5 0
-7 -4 -4 -10z"/>
<path d="M3525 4540 c-3 -5 1 -10 9 -10 9 0 16 5 16 10 0 6 -4 10 -9 10 -6 0
-13 -4 -16 -10z"/>
<path d="M4644 4521 c1 -16 9 -34 19 -40 22 -14 22 -1 2 39 -19 37 -22 37 -21
1z"/>
<path d="M4114 4515 c-1 -14 2 -25 7 -25 5 0 9 7 9 15 0 8 0 18 1 22 0 4 -3 9
-8 10 -4 2 -9 -8 -9 -22z"/>
<path d="M4310 4526 c7 -7 14 -6 21 1 9 9 7 12 -9 10 -14 -1 -18 -5 -12 -11z"/>
<path d="M4388 4535 c-3 -4 -4 -14 -1 -24 4 -14 15 -19 44 -19 21 -1 39 3 39
8 0 9 -18 23 -35 26 -5 1 -17 5 -26 8 -8 4 -18 4 -21 1z m32 -26 c0 -6 -4 -7
-10 -4 -5 3 -10 11 -10 16 0 6 5 7 10 4 6 -3 10 -11 10 -16z"/>
<path d="M4766 4531 c-4 -5 -2 -12 4 -16 19 -12 11 -26 -9 -15 -27 14 -31 13
-24 -5 3 -9 8 -13 11 -10 3 3 13 -2 23 -11 16 -15 17 -13 15 20 -2 38 -10 53
-20 37z"/>
<path d="M4055 4514 c-17 -12 -17 -14 -2 -20 22 -8 47 2 47 19 0 17 -22 18
-45 1z"/>
<path d="M4345 4520 c-3 -5 -1 -10 4 -10 6 0 11 5 11 10 0 6 -2 10 -4 10 -3 0
-8 -4 -11 -10z"/>
<path d="M3770 4504 c0 -8 5 -12 10 -9 6 4 8 11 5 16 -9 14 -15 11 -15 -7z"/>
<path d="M4220 4510 c-9 -6 -10 -10 -3 -10 6 0 15 5 18 10 8 12 4 12 -15 0z"/>
<path d="M4275 4500 c-7 -23 -21 -26 -28 -7 -4 9 -6 9 -6 0 -2 -20 21 -27 34
-10 7 10 18 17 24 17 7 0 9 5 6 10 -10 16 -23 12 -30 -10z"/>
<path d="M4806 4500 c7 -28 12 -35 18 -29 2 2 -2 15 -10 29 l-15 25 7 -25z"/>
<path d="M3740 4485 c-7 -9 -11 -18 -8 -20 3 -3 11 1 18 10 7 9 11 18 8 20 -3
3 -11 -1 -18 -10z"/>
<path d="M4156 4491 c-4 -5 -2 -12 3 -15 5 -4 12 -2 15 3 4 5 2 12 -3 15 -5 4
-12 2 -15 -3z"/>
<path d="M4345 4489 c-10 -15 3 -25 16 -12 7 7 7 13 1 17 -6 3 -14 1 -17 -5z"/>
<path d="M4866 4475 c-8 -30 8 -65 29 -65 19 0 19 10 -2 39 -9 14 -11 21 -5
17 14 -8 15 -5 6 18 -9 23 -21 19 -28 -9z"/>
<path d="M3790 4479 c0 -5 5 -7 10 -4 6 3 10 8 10 11 0 2 -4 4 -10 4 -5 0 -10
-5 -10 -11z"/>
<path d="M3961 4476 c-16 -19 -22 -56 -9 -56 5 0 8 7 4 15 -3 9 3 19 14 25 20
11 27 30 11 30 -5 0 -14 -6 -20 -14z"/>
<path d="M4530 4482 c0 -6 -8 -13 -17 -16 -14 -4 -14 -4 2 -3 11 0 31 -5 45
-13 24 -13 24 -13 9 10 -17 26 -39 38 -39 22z"/>
<path d="M4090 4460 c19 -13 30 -13 30 0 0 6 -10 10 -22 10 -19 0 -20 -2 -8
-10z"/>
<path d="M4390 4460 c-12 -8 -12 -10 5 -9 11 0 29 4 40 9 18 8 18 9 -5 9 -14
0 -32 -4 -40 -9z"/>
<path d="M3486 4452 c-6 -10 11 -49 24 -57 9 -5 10 -1 5 15 -4 14 -3 25 5 30
8 5 5 9 -9 13 -12 3 -23 2 -25 -1z"/>
<path d="M4156 4451 c-4 -7 -5 -15 -2 -18 9 -9 19 4 14 18 -4 11 -6 11 -12 0z"/>
<path d="M4350 4445 c0 -8 5 -15 10 -15 6 0 10 7 10 15 0 8 -4 15 -10 15 -5 0
-10 -7 -10 -15z"/>
<path d="M4686 4446 c10 -8 21 -12 24 -10 5 6 -21 24 -34 24 -6 0 -1 -6 10
-14z"/>
<path d="M3755 4440 c-3 -4 3 -11 12 -14 9 -4 20 -1 24 5 4 6 11 9 17 5 6 -3
13 -3 16 2 2 4 -11 8 -30 9 -19 0 -36 -3 -39 -7z"/>
<path d="M3983 4443 c-14 -5 -18 -23 -5 -23 5 0 17 7 28 15 14 11 15 14 4 14
-8 0 -21 -3 -27 -6z"/>
<path d="M4320 4441 c0 -6 4 -13 10 -16 6 -3 7 1 4 9 -7 18 -14 21 -14 7z"/>
<path d="M4513 4435 c9 -6 14 -15 10 -19 -4 -4 1 -4 10 0 24 9 16 29 -13 30
-21 1 -22 0 -7 -11z"/>
<path d="M4730 4435 c12 -15 30 -12 30 6 0 5 -10 9 -21 9 -18 0 -19 -2 -9 -15z"/>
<path d="M4242 4430 c6 -18 30 -20 34 -2 1 7 0 8 -3 2 -3 -7 -10 -7 -21 2 -13
11 -14 11 -10 -2z"/>
<path d="M4653 4429 c18 -10 18 -11 0 -24 -21 -16 -14 -28 11 -19 23 9 17 48
-9 52 -19 3 -19 2 -2 -9z"/>
<path d="M3378 4410 c-15 -11 -32 -20 -38 -20 -10 0 -10 -3 0 -15 17 -21 31
-19 59 11 32 33 15 53 -21 24z"/>
<path d="M4045 4420 c-3 -5 -1 -10 4 -10 6 0 11 5 11 10 0 6 -2 10 -4 10 -3 0
-8 -4 -11 -10z"/>
<path d="M4460 4420 c0 -5 5 -10 10 -10 6 0 10 5 10 10 0 6 -4 10 -10 10 -5 0
-10 -4 -10 -10z"/>
<path d="M4568 4423 c7 -3 16 -2 19 1 4 3 -2 6 -13 5 -11 0 -14 -3 -6 -6z"/>
<path d="M4837 4410 c-8 -30 -4 -35 20 -21 10 6 13 11 6 11 -6 0 -13 8 -15 18
-3 13 -5 11 -11 -8z"/>
<path d="M3414 4384 c-31 -28 -35 -37 -24 -44 12 -8 11 -10 -6 -10 -18 0 -54
-28 -54 -42 0 -2 14 -3 30 0 17 2 30 9 30 15 0 6 3 7 7 4 3 -4 12 -2 19 4 10
9 11 16 2 33 -6 11 -7 18 -3 14 5 -4 14 -3 22 3 10 9 13 8 13 -1 0 -8 3 -11 6
-8 3 4 1 15 -5 26 -7 13 -7 22 1 30 7 7 9 12 6 12 -4 0 -24 -16 -44 -36z"/>
<path d="M3473 4408 c3 -9 1 -18 -5 -20 -6 -2 -3 -10 6 -17 14 -12 16 -11 9 5
-6 17 -5 18 13 4 18 -14 18 -14 -1 10 -11 14 -22 27 -24 30 -2 3 -1 -3 2 -12z"/>
<path d="M3727 4414 c-4 -4 -7 -12 -7 -18 0 -6 5 -4 10 4 6 10 10 11 10 3 0
-7 7 -13 16 -13 9 0 14 6 12 13 -5 14 -31 21 -41 11z"/>
<path d="M3805 4410 c3 -5 8 -10 11 -10 2 0 4 5 4 10 0 6 -5 10 -11 10 -5 0
-7 -4 -4 -10z"/>
<path d="M4705 4410 c3 -5 8 -10 11 -10 2 0 4 5 4 10 0 6 -5 10 -11 10 -5 0
-7 -4 -4 -10z"/>
<path d="M4765 4410 c-4 -6 -11 -8 -16 -5 -5 4 -9 1 -9 -4 0 -6 4 -11 10 -11
5 0 7 -7 4 -15 -4 -9 0 -15 10 -15 9 0 19 -1 23 -2 4 -2 10 9 14 24 5 19 3 28
-8 32 -19 8 -21 8 -28 -4z m17 -32 c-7 -7 -12 -8 -12 -2 0 6 3 14 7 17 3 4 9
5 12 2 2 -3 -1 -11 -7 -17z"/>
<path d="M3670 4396 c0 -9 5 -16 10 -16 6 0 10 4 10 9 0 6 -4 13 -10 16 -5 3
-10 -1 -10 -9z"/>
<path d="M3950 4400 c-8 -5 -10 -10 -5 -10 6 0 17 5 25 10 8 5 11 10 5 10 -5
0 -17 -5 -25 -10z"/>
<path d="M4128 4403 c7 -3 16 -2 19 1 4 3 -2 6 -13 5 -11 0 -14 -3 -6 -6z"/>
<path d="M4378 4403 c6 -2 18 -2 25 0 6 3 1 5 -13 5 -14 0 -19 -2 -12 -5z"/>
<path d="M4560 4395 c7 -9 15 -13 17 -11 7 7 -7 26 -19 26 -6 0 -6 -6 2 -15z"/>
<path d="M4037 4394 c-8 -8 1 -24 14 -24 5 0 9 7 9 15 0 15 -12 20 -23 9z"/>
<path d="M4466 4393 c-11 -11 -6 -23 9 -23 8 0 15 4 15 9 0 13 -16 22 -24 14z"/>
<path d="M3790 4376 c0 -9 8 -12 27 -8 25 5 25 6 8 13 -29 11 -35 10 -35 -5z"/>
<path d="M4710 4381 c0 -6 5 -13 10 -16 6 -3 10 1 10 9 0 9 -4 16 -10 16 -5 0
-10 -4 -10 -9z"/>
<path d="M3725 4371 c-3 -2 -2 -7 0 -11 6 -10 45 -1 45 11 0 8 -37 8 -45 0z"/>
<path d="M3700 4360 c0 -5 -7 -7 -15 -4 -8 4 -15 1 -15 -5 0 -6 9 -11 20 -11
11 0 20 7 20 15 0 8 -2 15 -5 15 -3 0 -5 -4 -5 -10z"/>
<path d="M3918 4363 c7 -3 16 -2 19 1 4 3 -2 6 -13 5 -11 0 -14 -3 -6 -6z"/>
<path d="M4105 4360 c-8 -13 5 -13 25 0 13 8 13 10 -2 10 -9 0 -20 -4 -23 -10z"/>
<path d="M4588 4363 c7 -3 16 -2 19 1 4 3 -2 6 -13 5 -11 0 -14 -3 -6 -6z"/>
<path d="M3622 4340 c-7 -11 -8 -20 -3 -20 9 0 24 30 18 36 -1 2 -8 -6 -15
-16z"/>
<path d="M4250 4345 c0 -8 5 -15 10 -15 6 0 10 7 10 15 0 8 -4 15 -10 15 -5 0
-10 -7 -10 -15z"/>
<path d="M4510 4350 c-9 -6 -10 -10 -3 -10 6 0 15 5 18 10 8 12 4 12 -15 0z"/>
<path d="M4810 4344 c0 -8 5 -12 10 -9 6 4 8 11 5 16 -9 14 -15 11 -15 -7z"/>
<path d="M3850 4335 c-7 -9 -11 -18 -8 -20 3 -3 11 1 18 10 7 9 11 18 8 20 -3
3 -11 -1 -18 -10z"/>
<path d="M4285 4340 c3 -5 8 -10 11 -10 2 0 4 5 4 10 0 6 -5 10 -11 10 -5 0
-7 -4 -4 -10z"/>
<path d="M4608 4343 c7 -3 16 -2 19 1 4 3 -2 6 -13 5 -11 0 -14 -3 -6 -6z"/>
<path d="M4650 4343 c0 -12 38 -48 45 -41 3 2 -6 15 -20 28 -14 13 -25 19 -25
13z"/>
<path d="M4170 4325 c-8 -9 -8 -15 -2 -15 12 0 26 19 19 26 -2 2 -10 -2 -17
-11z"/>
<path d="M4700 4331 c0 -5 7 -12 16 -15 14 -5 15 -4 4 9 -14 17 -20 19 -20 6z"/>
<path d="M3928 4323 c6 -2 18 -2 25 0 6 3 1 5 -13 5 -14 0 -19 -2 -12 -5z"/>
<path d="M4335 4320 c3 -5 11 -10 16 -10 6 0 7 5 4 10 -3 6 -11 10 -16 10 -6
0 -7 -4 -4 -10z"/>
<path d="M4578 4323 c7 -3 16 -2 19 1 4 3 -2 6 -13 5 -11 0 -14 -3 -6 -6z"/>
<path d="M4925 4320 c3 -5 8 -10 11 -10 2 0 4 5 4 10 0 6 -5 10 -11 10 -5 0
-7 -4 -4 -10z"/>
<path d="M3623 4313 l-22 -4 26 -30 c15 -16 31 -29 37 -29 6 0 5 4 -3 9 -7 5
-10 14 -7 20 9 14 43 14 51 1 3 -5 -1 -10 -9 -10 -9 0 -16 -7 -16 -15 0 -20
13 -19 34 3 15 18 15 20 -2 36 -11 9 -26 14 -36 10 -9 -3 -16 -1 -16 5 0 6 -3
10 -7 10 -5 -1 -18 -4 -30 -6z"/>
<path d="M3710 4310 c0 -5 5 -10 10 -10 6 0 10 5 10 10 0 6 -4 10 -10 10 -5 0
-10 -4 -10 -10z"/>
<path d="M3745 4310 c3 -5 8 -10 11 -10 2 0 4 5 4 10 0 6 -5 10 -11 10 -5 0
-7 -4 -4 -10z"/>
<path d="M3990 4310 c0 -5 -8 -11 -17 -13 -15 -4 -15 -5 2 -6 11 0 26 3 33 8
11 7 11 9 -2 14 -9 4 -16 2 -16 -3z"/>
<path d="M4755 4310 c4 -6 11 -8 16 -5 14 9 11 15 -7 15 -8 0 -12 -5 -9 -10z"/>
<path d="M4796 4312 c-4 -7 -2 -12 5 -12 8 0 8 -4 -1 -15 -7 -8 -9 -15 -4 -15
5 0 2 -5 -6 -11 -13 -9 -13 -10 0 -6 8 2 23 -2 33 -11 15 -14 17 -13 17 6 0
14 -6 22 -17 22 -17 1 -17 1 0 14 21 16 23 30 3 23 -8 -3 -16 -1 -19 6 -2 8
-5 8 -11 -1z"/>
<path d="M4854 4304 c1 -8 8 -19 15 -24 10 -6 9 -10 -5 -19 -11 -6 -14 -11 -8
-11 6 0 19 9 28 19 13 15 14 20 4 24 -7 3 -2 6 12 7 23 1 23 2 5 10 -32 14
-53 11 -51 -6z"/>
<path d="M3861 4296 c-15 -18 5 -34 22 -17 9 9 7 10 -8 5 -18 -7 -18 -6 -6 9
7 9 11 17 8 17 -2 0 -10 -6 -16 -14z"/>
<path d="M4515 4300 c3 -5 11 -10 16 -10 6 0 7 5 4 10 -3 6 -11 10 -16 10 -6
0 -7 -4 -4 -10z"/>
<path d="M4642 4293 c-13 -5 -7 -23 9 -23 6 0 8 4 5 9 -4 5 0 12 6 14 7 3 9 5
3 5 -5 0 -16 -2 -23 -5z"/>
<path d="M3515 4261 c2 -17 6 -35 10 -41 8 -14 25 -3 25 16 0 9 -5 12 -12 8
-7 -5 -9 -2 -5 9 3 8 -1 21 -8 27 -12 10 -14 7 -10 -19z"/>
<path d="M3321 4258 c-26 -13 -39 -24 -30 -26 8 -3 22 -9 32 -14 16 -8 18 -7
12 11 -5 16 -2 21 12 21 11 0 25 6 33 13 12 10 12 9 2 -4 -6 -9 -9 -19 -5 -23
4 -4 -1 -4 -11 0 -15 6 -17 4 -11 -16 5 -15 4 -20 -4 -16 -6 4 -11 3 -11 -2 0
-6 -9 -8 -20 -5 -11 3 -20 8 -20 12 0 4 -9 7 -21 8 -12 1 -19 -3 -16 -10 2 -7
11 -11 19 -9 9 1 18 -4 22 -13 8 -21 21 -19 51 7 21 18 55 71 55 85 0 10 -51
-1 -89 -19z"/>
<path d="M4987 4274 c-3 -3 -3 -13 0 -22 4 -10 2 -13 -5 -8 -7 4 -12 1 -12 -8
0 -16 29 -23 31 -8 0 4 2 17 3 30 3 21 -4 28 -17 16z"/>
<path d="M5110 4270 c0 -5 5 -10 11 -10 5 0 7 5 4 10 -3 6 -8 10 -11 10 -2 0
-4 -4 -4 -10z"/>
<path d="M5169 4250 c30 -28 51 -32 51 -10 0 9 -62 40 -78 40 -4 0 8 -14 27
-30z"/>
<path d="M3419 4253 c-13 -17 -13 -17 5 -3 15 11 20 12 23 3 5 -15 33 -17 33
-3 0 6 -4 10 -9 10 -5 0 -16 2 -24 5 -7 3 -20 -2 -28 -12z"/>
<path d="M4905 4260 c-12 -4 -26 -14 -33 -23 -10 -12 -9 -16 10 -20 24 -7 38
-1 38 15 0 6 -7 5 -17 -3 -10 -7 -7 -1 6 14 26 29 26 30 -4 17z"/>
<path d="M5063 4263 c-15 -5 -17 -23 -4 -23 5 0 11 7 15 15 3 8 4 15 3 14 -1
0 -8 -3 -14 -6z"/>
<path d="M3613 4235 c0 -14 4 -25 9 -25 5 0 6 5 3 10 -9 14 8 13 23 -2 18 -18
14 -1 -5 22 -23 26 -30 25 -30 -5z"/>
<path d="M5130 4237 c0 -24 22 -38 39 -24 10 8 13 8 8 0 -10 -16 2 -43 19 -43
8 0 17 7 20 15 4 10 13 13 26 9 14 -4 19 -2 16 7 -5 14 -48 23 -48 10 0 -5 -7
-11 -14 -14 -10 -4 -13 -1 -10 7 6 17 -22 40 -37 30 -8 -4 -9 -3 -5 4 4 7 2
12 -3 12 -6 0 -11 -6 -11 -13z"/>
<path d="M3200 4230 c-13 -8 -13 -10 2 -10 9 0 25 -3 35 -7 16 -6 16 -5 4 10
-16 20 -20 20 -41 7z"/>
<path d="M3421 4227 c-6 -8 -7 -17 -3 -21 4 -4 3 -7 -3 -6 -27 6 -38 -2 -16
-11 28 -11 26 -12 35 24 7 30 4 34 -13 14z"/>
<path d="M4780 4236 c0 -2 7 -7 16 -10 8 -3 12 -2 9 4 -6 10 -25 14 -25 6z"/>
<path d="M5064 4226 c-18 -14 -11 -40 9 -33 16 5 38 -18 34 -35 -2 -7 -2 -10
0 -5 3 4 11 7 18 7 14 0 27 25 18 34 -4 3 -14 6 -24 6 -12 0 -16 5 -13 14 7
19 -21 27 -42 12z"/>
<path d="M3446 4214 c-8 -22 1 -31 16 -16 9 9 9 15 1 23 -7 7 -12 5 -17 -7z"/>
<path d="M3580 4209 c7 -11 14 -19 16 -16 7 7 -7 37 -17 37 -6 0 -5 -9 1 -21z"/>
<path d="M5314 4217 c18 -13 17 -15 -17 -21 -49 -9 -47 -21 7 -36 34 -9 43
-16 39 -30 -6 -21 36 -55 50 -41 5 5 16 7 23 4 10 -4 12 0 8 13 -12 32 -27 46
-45 41 -10 -3 -26 4 -35 15 -17 18 -17 19 1 12 13 -5 16 -4 11 4 -4 7 -1 12 8
12 10 0 13 -6 9 -17 -3 -10 -3 -15 1 -12 10 9 16 48 8 52 -4 3 -25 8 -47 11
-36 7 -38 6 -21 -7z m56 -97 c0 -5 -2 -10 -4 -10 -3 0 -8 5 -11 10 -3 6 -1 10
4 10 6 0 11 -4 11 -10z"/>
<path d="M3490 4211 c0 -6 5 -13 10 -16 15 -9 12 -22 -5 -22 -8 0 -15 5 -15
11 0 17 -17 -7 -28 -42 -10 -30 -10 -32 8 -22 11 6 17 16 14 24 -3 9 5 15 25
19 32 7 40 24 19 45 -14 14 -28 16 -28 3z"/>
<path d="M4925 4210 c-3 -5 -1 -10 4 -10 6 0 11 5 11 10 0 6 -2 10 -4 10 -3 0
-8 -4 -11 -10z"/>
<path d="M5002 4208 c-14 -14 -16 -38 -4 -38 12 0 32 23 32 37 0 16 -12 17
-28 1z"/>
<path d="M5275 4210 c3 -5 8 -10 11 -10 2 0 4 5 4 10 0 6 -5 10 -11 10 -5 0
-7 -4 -4 -10z"/>
<path d="M3548 4192 c-4 -12 1 -18 13 -18 22 0 21 -1 13 20 -8 21 -21 20 -26
-2z"/>
<path d="M4947 4193 c-12 -11 -8 -19 11 -19 10 0 19 6 19 13 0 14 -19 18 -30
6z"/>
<path d="M5040 4176 c0 -9 5 -16 10 -16 6 0 10 4 10 9 0 6 -4 13 -10 16 -5 3
-10 -1 -10 -9z"/>
<path d="M3263 4161 c-3 -12 -11 -17 -19 -14 -8 3 -14 0 -14 -7 0 -8 9 -10 27
-5 34 8 55 24 47 36 -10 16 -36 9 -41 -10z"/>
<path d="M3390 4174 c0 -10 28 -33 33 -27 3 3 0 12 -8 19 -14 15 -25 18 -25 8z"/>
<path d="M5017 4172 c-10 -15 15 -48 42 -55 14 -3 17 0 13 15 -3 12 -10 17
-22 13 -14 -4 -19 0 -22 17 -2 17 -5 19 -11 10z"/>
<path d="M5221 4171 c-10 -7 -8 -12 10 -25 27 -18 59 -21 59 -5 0 6 -6 9 -14
6 -8 -3 -16 2 -19 14 -6 21 -15 23 -36 10z"/>
<path d="M5144 4153 c-9 -16 -7 -18 18 -19 15 -1 28 3 28 7 0 5 -7 9 -16 9 -8
0 -12 5 -9 10 3 6 2 10 -2 10 -5 0 -13 -8 -19 -17z"/>
<path d="M3109 4129 c-8 -16 -8 -23 1 -29 9 -6 8 -10 -5 -17 -14 -8 -15 -12
-4 -18 7 -5 14 -4 17 3 2 7 9 12 16 12 16 0 60 47 49 53 -4 2 -20 7 -35 11
-21 5 -30 2 -39 -15z"/>
<path d="M5201 4123 c-15 -17 -16 -16 27 -32 25 -11 35 -11 46 -2 16 13 56 -1
56 -19 0 -6 9 -10 21 -10 l20 0 -21 30 c-18 25 -25 28 -36 19 -10 -8 -14 -8
-14 0 0 8 -6 7 -20 -1 -14 -9 -23 -10 -28 -3 -19 27 -37 33 -51 18z"/>
<path d="M3390 4109 c0 -7 -8 -18 -17 -25 -16 -13 -15 -13 7 -5 25 8 41 41 21
41 -6 0 -11 -5 -11 -11z"/>
<path d="M5114 4103 c2 -9 8 -19 14 -21 6 -2 8 5 5 17 -6 25 -22 28 -19 4z"/>
<path d="M3279 4069 l-24 -20 24 7 c16 4 21 3 17 -5 -4 -6 -12 -11 -18 -11 -5
0 -22 -9 -38 -20 -15 -11 -30 -17 -33 -14 -3 3 -20 -2 -39 -11 -28 -14 -30
-14 -14 0 16 12 17 18 8 27 -9 9 -12 9 -12 -2 0 -13 -2 -13 -9 -1 -8 12 -12
12 -24 2 -12 -9 -16 -9 -19 1 -3 8 -14 4 -32 -14 -20 -18 -25 -28 -16 -33 11
-7 24 5 33 29 2 5 12 3 23 -4 24 -15 29 -70 7 -70 -7 0 -13 -4 -13 -10 0 -12
2 -12 36 0 26 10 26 11 9 30 -10 12 -13 20 -7 20 7 0 12 -5 12 -11 0 -6 7 -9
15 -5 8 3 15 1 15 -5 0 -5 16 2 35 16 19 15 33 32 32 37 -1 6 4 13 12 16 9 3
11 0 7 -7 -6 -9 58 30 73 44 5 6 -19 35 -29 35 -4 0 -18 -9 -31 -21z m51 -10
c0 -14 -17 -10 -23 5 -4 10 -1 13 9 9 7 -3 14 -9 14 -14z m-120 -65 c0 -12
-26 -30 -38 -26 -10 3 -8 8 5 18 19 14 33 18 33 8z"/>
<path d="M5184 4081 c10 -15 65 -31 71 -20 6 9 -8 13 -34 10 -7 -2 -10 2 -6 8
3 7 -3 11 -15 11 -12 0 -19 -4 -16 -9z"/>
<path d="M5276 4073 c-2 -3 -1 -16 4 -29 10 -24 -2 -34 -15 -13 -4 6 -13 8
-21 5 -8 -3 -14 -2 -14 3 0 5 -11 11 -25 13 -14 3 -25 4 -25 3 0 -7 73 -45 86
-45 8 0 13 -4 9 -9 -7 -13 44 -47 73 -49 31 -1 28 7 -8 19 -16 6 -27 15 -24
21 4 6 9 6 13 2 10 -15 101 -54 101 -45 0 6 -9 13 -20 16 -24 8 -26 21 -4 29
15 6 15 8 -2 27 -16 18 -16 19 -1 13 10 -3 17 -1 17 5 0 6 -5 11 -12 11 -6 0
-3 7 8 15 16 12 16 14 3 15 -23 0 -42 -26 -36 -51 4 -16 3 -18 -8 -9 -10 8
-15 8 -20 0 -4 -6 1 -18 11 -26 15 -12 12 -12 -14 1 -18 9 -37 13 -42 10 -5
-3 -11 -1 -15 5 -5 9 15 15 38 11 4 0 7 4 7 10 0 6 -8 8 -19 4 -11 -3 -22 -1
-26 5 -3 5 1 10 10 10 9 0 15 5 13 12 -4 12 -33 20 -42 11z"/>
<path d="M3180 4029 c0 -5 5 -7 10 -4 6 3 10 8 10 11 0 2 -4 4 -10 4 -5 0 -10
-5 -10 -11z"/>
<path d="M3087 3946 c-4 -10 -1 -13 9 -9 15 6 19 23 5 23 -5 0 -11 -7 -14 -14z"/>
<path d="M5381 3938 c-1 -10 1 -18 3 -18 2 0 11 -3 20 -6 9 -3 16 -1 16 5 0 6
-6 11 -14 11 -8 0 -17 6 -19 13 -3 7 -6 5 -6 -5z"/>
<path d="M4400 3830 c0 -5 5 -10 10 -10 6 0 10 5 10 10 0 6 -4 10 -10 10 -5 0
-10 -4 -10 -10z"/>
<path d="M2910 3781 c-7 -14 -6 -21 3 -25 6 -2 1 -4 -13 -3 -15 1 -24 -3 -22
-10 1 -7 -2 -13 -8 -13 -5 0 -10 -5 -10 -11 0 -5 4 -8 9 -4 5 3 17 -2 26 -11
15 -15 18 -15 46 12 31 30 38 50 15 41 -15 -6 -30 19 -20 34 3 5 1 9 -5 9 -6
0 -15 -9 -21 -19z"/>
<path d="M4790 3750 c0 -5 5 -10 10 -10 6 0 10 5 10 10 0 6 -4 10 -10 10 -5 0
-10 -4 -10 -10z"/>
<path d="M5260 3670 c0 -5 5 -10 10 -10 6 0 10 5 10 10 0 6 -4 10 -10 10 -5 0
-10 -4 -10 -10z"/>
<path d="M5030 3580 c0 -5 5 -10 10 -10 6 0 10 5 10 10 0 6 -4 10 -10 10 -5 0
-10 -4 -10 -10z"/>
<path d="M4240 3545 c0 -8 7 -15 15 -15 8 0 15 7 15 15 0 8 -7 15 -15 15 -8 0
-15 -7 -15 -15z"/>
<path d="M4550 3470 c0 -5 5 -10 10 -10 6 0 10 5 10 10 0 6 -4 10 -10 10 -5 0
-10 -4 -10 -10z"/>
<path d="M4715 3470 c-3 -5 1 -10 9 -10 9 0 16 5 16 10 0 6 -4 10 -9 10 -6 0
-13 -4 -16 -10z"/>
<path d="M3926 3447 c3 -10 9 -15 12 -12 3 3 0 11 -7 18 -10 9 -11 8 -5 -6z"/>
<path d="M4390 3376 c0 -8 4 -17 9 -20 11 -7 33 18 24 27 -12 12 -33 7 -33 -7z"/>
<path d="M3970 3332 c0 -5 7 -9 15 -9 8 0 15 4 15 9 0 4 -7 8 -15 8 -8 0 -15
-4 -15 -8z"/>
<path d="M5110 3260 c0 -5 5 -10 10 -10 6 0 10 5 10 10 0 6 -4 10 -10 10 -5 0
-10 -4 -10 -10z"/>
<path d="M4155 3240 c-4 -6 -3 -16 3 -22 6 -6 12 -6 17 2 4 6 3 16 -3 22 -6 6
-12 6 -17 -2z"/>
<path d="M5380 3220 c0 -5 5 -10 10 -10 6 0 10 5 10 10 0 6 -4 10 -10 10 -5 0
-10 -4 -10 -10z"/>
<path d="M5155 3187 c-26 -20 -16 -61 16 -65 29 -3 54 20 46 42 -10 25 -42 37
-62 23z"/>
<path d="M5435 3171 c-6 -11 9 -23 19 -14 9 9 7 23 -3 23 -6 0 -12 -4 -16 -9z"/>
<path d="M4506 3134 c-7 -18 10 -44 28 -44 23 0 36 22 25 42 -12 22 -45 24
-53 2z"/>
<path d="M4644 3108 c-5 -7 -7 -21 -6 -30 3 -17 -20 -18 -372 -18 l-376 0 0
-240 c0 -174 3 -246 12 -260 10 -16 10 -24 0 -40 -19 -32 -14 -57 17 -79 16
-12 34 -21 40 -21 6 0 11 -3 11 -8 0 -7 56 -36 75 -38 6 -1 14 -2 18 -3 4 0 2
-7 -5 -15 -11 -11 -16 -11 -36 2 -22 14 -25 14 -34 -1 -5 -9 -16 -17 -24 -17
-20 0 -29 27 -15 44 9 11 6 18 -18 35 -16 12 -32 21 -35 21 -3 0 -6 -29 -6
-64 0 -44 5 -67 15 -76 19 -16 19 -34 0 -50 -11 -9 -15 -27 -13 -58 3 -44 3
-44 62 -68 72 -29 86 -30 86 -4 0 29 34 44 54 24 19 -18 19 -20 6 -45 -9 -16
-7 -19 10 -19 16 0 20 6 20 33 0 32 1 33 35 29 30 -4 35 -1 41 24 10 37 -7 59
-44 58 l-31 -2 -3 114 -3 114 25 0 c14 0 33 9 43 20 21 25 53 26 66 1 10 -18
25 -19 194 -20 l184 -2 2 101 2 100 -235 0 c-178 0 -235 -3 -238 -12 -3 -9 -9
-8 -21 4 -14 13 -17 37 -17 117 l0 101 218 1 c119 1 250 2 291 3 l73 1 3 88
c1 54 -2 93 -9 100 -6 7 -11 23 -11 37 0 18 -6 26 -22 28 -11 2 -25 -3 -29
-10z m-619 -177 c-6 -5 -25 10 -25 20 0 5 6 4 14 -3 8 -7 12 -15 11 -17z m-93
-56 c0 -5 -5 -11 -11 -13 -6 -2 -11 4 -11 13 0 9 5 15 11 13 6 -2 11 -8 11
-13z m83 -55 c3 -5 -1 -10 -10 -10 -9 0 -13 5 -10 10 3 6 8 10 10 10 2 0 7 -4
10 -10z m-55 -35 c0 -8 -4 -15 -10 -15 -5 0 -10 7 -10 15 0 8 5 15 10 15 6 0
10 -7 10 -15z m100 -20 c0 -8 -4 -15 -9 -15 -13 0 -22 16 -14 24 11 11 23 6
23 -9z m64 -161 c20 -8 9 -34 -14 -34 -22 0 -34 15 -25 30 7 11 17 12 39 4z
m122 -33 c-9 -14 -33 -14 -41 -1 -4 6 -1 18 6 26 11 13 14 13 27 0 8 -8 11
-19 8 -25z m-136 -87 c0 -17 -22 -14 -28 4 -2 7 3 12 12 12 9 0 16 -7 16 -16z
m-135 -24 c-5 -8 -11 -8 -17 -2 -6 6 -7 16 -3 22 5 8 11 8 17 2 6 -6 7 -16 3
-22z m131 -151 c4 -8 1 -8 -14 0 -12 6 -24 16 -28 22 -4 8 -1 8 14 0 12 -6 24
-16 28 -22z"/>
<path d="M4216 2592 c-3 -6 -1 -14 5 -17 15 -10 25 3 12 16 -7 7 -13 7 -17 1z"/>
<path d="M5590 3110 c0 -5 5 -10 10 -10 6 0 10 5 10 10 0 6 -4 10 -10 10 -5 0
-10 -4 -10 -10z"/>
<path d="M4916 3075 c-4 -11 -22 -15 -76 -15 l-70 0 -1 -40 c-3 -120 -1 -165
8 -157 3 4 15 -1 25 -10 16 -14 23 -15 38 -5 13 8 66 12 150 12 l130 0 2 -422
3 -423 117 0 118 0 0 423 0 422 180 0 180 0 0 100 0 100 -379 0 c-328 0 -380
2 -385 15 -3 8 -12 15 -20 15 -7 0 -16 -7 -20 -15z"/>
<path d="M2833 3013 c1 -25 7 -48 13 -50 7 -2 10 7 8 22 -1 15 1 24 4 20 4 -4
7 -10 7 -13 0 -13 16 -32 27 -32 7 0 6 6 -2 15 -7 8 -9 15 -5 15 4 0 1 8 -6
18 -11 14 -11 15 1 5 14 -13 39 -19 27 -6 -7 7 11 33 23 33 3 0 7 -6 7 -14 0
-8 -6 -12 -12 -9 -9 3 -12 -6 -10 -26 1 -17 -2 -31 -7 -31 -7 0 -6 -5 1 -13 6
-8 7 -18 3 -22 -4 -5 -1 -5 6 -1 8 5 22 0 35 -10 18 -16 18 -14 -2 9 -27 30
-37 61 -17 54 7 -3 13 1 13 9 0 7 -5 11 -11 8 -6 -3 -2 2 8 10 11 9 15 16 8
16 -6 0 -9 9 -7 20 4 18 -2 20 -55 20 l-59 0 2 -47z"/>
<path d="M2965 3050 c-3 -6 1 -7 9 -4 18 7 21 14 7 14 -6 0 -13 -4 -16 -10z"/>
<path d="M3091 2968 c70 -106 83 -122 74 -93 -6 17 -3 16 16 -5 38 -43 17 -7
-56 93 -38 53 -76 96 -83 96 -7 1 15 -41 49 -91z"/>
<path d="M3551 2922 c0 -140 12 -202 39 -210 12 -4 11 0 -3 15 -32 36 11 85
54 62 16 -8 20 -18 17 -40 -3 -16 0 -31 6 -34 6 -2 1 -2 -11 0 -12 3 -24 1
-28 -5 -3 -5 -2 -10 4 -10 6 0 8 -7 4 -15 -3 -10 0 -15 8 -13 8 2 13 -3 12 -9
-2 -7 1 -13 7 -13 5 0 31 -20 57 -45 26 -24 51 -45 56 -45 13 0 8 228 -5 234
-10 5 -10 7 0 12 9 4 12 40 12 130 l0 123 -115 0 -115 0 1 -137z m57 -69 c2
-8 -5 -13 -17 -13 -12 0 -21 6 -21 16 0 18 31 15 38 -3z m102 -3 c0 -5 -11
-21 -25 -36 -14 -15 -25 -22 -25 -16 0 6 5 14 11 17 6 4 8 13 5 20 -2 7 0 17
6 23 12 12 28 7 28 -8z"/>
<path d="M2870 2945 c7 -8 17 -15 22 -15 6 0 5 7 -2 15 -7 8 -17 15 -22 15 -6
0 -5 -7 2 -15z"/>
<path d="M2840 2943 c0 -4 19 -19 41 -31 32 -19 44 -21 53 -11 8 9 8 10 -2 5
-6 -4 -24 1 -40 12 -42 29 -52 34 -52 25z"/>
<path d="M2830 2915 c0 -2 18 -14 40 -25 49 -25 53 -19 6 9 -33 21 -46 25 -46
16z"/>
<path d="M2870 2771 l-35 -6 -3 -372 -2 -373 115 0 c63 0 116 3 116 8 1 4 2
42 3 84 1 61 -1 79 -13 83 -9 3 -21 -1 -28 -11 -15 -21 -46 -11 -41 13 3 17
32 22 67 12 7 -2 16 2 18 9 3 7 -3 12 -14 12 -15 1 -16 2 -3 10 11 6 15 22 14
52 -1 24 -2 59 -3 79 l-1 37 -100 27 c-55 16 -98 30 -96 32 4 4 148 -31 180
-43 9 -3 16 -1 16 4 0 6 -39 23 -86 39 -47 15 -81 29 -76 31 5 1 43 -8 85 -21
l76 -24 -2 24 c-2 21 -14 29 -80 55 -42 17 -76 33 -74 35 4 3 102 -26 140 -42
9 -4 17 -3 17 1 0 5 -38 24 -85 43 -47 19 -83 36 -81 38 2 2 40 -10 85 -26 44
-17 81 -27 81 -23 0 5 -36 23 -80 42 -44 18 -78 35 -76 37 3 3 47 -13 144 -54
8 -4 12 7 12 36 0 23 5 41 11 41 5 0 7 5 3 11 -4 8 0 8 15 0 25 -14 28 -22 4
-15 -13 4 -11 0 6 -15 13 -12 20 -21 17 -21 -5 0 58 -90 102 -145 4 -5 19 -26
32 -45 27 -39 30 -43 66 -85 13 -16 34 -45 45 -62 24 -38 27 -39 46 -15 13 15
13 14 3 -7 -9 -18 -9 -25 0 -31 6 -4 11 -11 10 -15 -2 -4 12 -27 29 -52 30
-42 33 -44 50 -29 10 9 21 16 25 16 5 0 -2 -8 -14 -18 -28 -22 -19 -42 18 -42
36 -1 59 -20 57 -47 -2 -27 25 -33 122 -26 l73 6 0 78 c0 88 -3 90 -59 58
l-36 -21 35 31 c19 17 30 31 23 31 -14 0 -179 128 -217 168 -30 32 -61 33 -51
2 3 -11 -6 -30 -26 -51 -26 -27 -29 -29 -19 -9 14 26 20 70 10 70 -3 0 -15 -7
-27 -15 -27 -19 -59 -10 -42 11 7 8 20 12 29 9 14 -4 19 2 24 30 5 23 3 42 -5
51 -14 17 -33 19 -23 2 4 -8 3 -10 -2 -5 -5 5 -9 13 -9 18 0 5 -25 32 -55 60
-45 41 -47 45 -15 22 39 -27 40 -27 20 -3 -10 14 -43 50 -73 81 -29 31 -54 62
-56 70 -5 33 -24 48 -73 57 -61 11 -212 13 -263 3z m100 -61 c44 -22 80 -42
80 -45 0 -5 -159 72 -169 81 -13 12 19 -1 89 -36z m20 14 c0 -2 -9 0 -20 6
-11 6 -20 13 -20 16 0 2 9 0 20 -6 11 -6 20 -13 20 -16z m65 -9 l20 -16 -20
10 c-11 5 -29 17 -40 26 l-20 16 20 -10 c11 -5 29 -17 40 -26z m135 15 c0 -5
-2 -10 -4 -10 -3 0 -8 5 -11 10 -3 6 -1 10 4 10 6 0 11 -4 11 -10z m-180 -70
c22 -11 40 -23 40 -25 0 -5 -79 32 -89 41 -11 10 14 2 49 -16z m126 -16 c1 -9
-1 -13 -4 -9 -4 4 -7 10 -7 13 0 4 -4 14 -9 22 -7 12 -6 13 4 3 8 -7 15 -20
16 -29z m-116 -19 c17 -9 30 -18 30 -21 0 -4 -59 23 -69 32 -10 9 13 3 39 -11z
m205 -4 c7 -12 -12 -24 -25 -16 -11 7 -4 25 10 25 5 0 11 -4 15 -9z m-290 -92
c64 -16 123 -41 109 -46 -7 -2 -38 6 -70 17 -33 12 -74 26 -91 31 -18 6 -33
12 -33 15 0 3 8 3 18 0 9 -3 40 -11 67 -17z m80 -135 c38 -13 38 -13 5 -7 -19
3 -53 12 -75 19 -38 13 -38 13 -5 7 19 -3 53 -12 75 -19z m405 -53 c0 -6 -4
-13 -10 -16 -5 -3 -10 1 -10 9 0 9 5 16 10 16 6 0 10 -4 10 -9z m-532 -74 c2
-12 -3 -17 -17 -17 -12 0 -21 6 -21 13 0 31 32 34 38 4z m692 8 c0 -8 -4 -15
-10 -15 -5 0 -10 7 -10 15 0 8 5 15 10 15 6 0 10 -7 10 -15z m8 -42 c-2 -10
-10 -18 -18 -18 -8 0 -16 8 -18 18 -2 12 3 17 18 17 15 0 20 -5 18 -17z m50
-29 c33 -16 40 -28 22 -39 -10 -6 -59 33 -60 48 0 10 2 9 38 -9z m-68 -36 c0
-5 -9 -8 -20 -8 -22 0 -28 26 -7 33 12 4 27 -10 27 -25z"/>
<path d="M4335 2760 c-3 -6 1 -13 10 -16 19 -8 30 0 20 15 -8 14 -22 14 -30 1z"/>
<path d="M3261 2718 c40 -56 110 -141 149 -183 21 -22 54 -58 74 -80 19 -22
37 -37 40 -34 7 7 -157 228 -187 251 -12 9 -22 20 -22 25 -1 20 -22 41 -48 47
l-29 7 23 -33z"/>
<path d="M3550 2530 c0 -100 0 -101 23 -95 14 4 18 3 9 -3 -7 -5 -10 -16 -7
-24 4 -9 2 -19 -4 -23 -11 -6 55 -69 118 -111 20 -13 48 -33 64 -44 l27 -22 0
155 0 154 -102 54 c-57 30 -109 55 -115 57 -10 3 -13 -22 -13 -98z m199 -44
c-2 -2 -17 -6 -34 -9 l-30 -6 30 13 c26 12 47 13 34 2z m-69 -100 c0 -3 -4 -8
-10 -11 -5 -3 -10 -1 -10 4 0 6 5 11 10 11 6 0 10 -2 10 -4z"/>
<path d="M4700 2480 c-26 -26 -12 -60 25 -60 43 0 53 50 14 70 -14 8 -23 6
-39 -10z"/>
<path d="M4228 2463 c7 -3 16 -2 19 1 4 3 -2 6 -13 5 -11 0 -14 -3 -6 -6z"/>
<path d="M5082 2431 c4 -13 18 -16 19 -4 0 4 -5 9 -11 12 -7 2 -11 -2 -8 -8z"/>
<path d="M5400 2430 c0 -5 5 -10 11 -10 5 0 7 5 4 10 -3 6 -8 10 -11 10 -2 0
-4 -4 -4 -10z"/>
<path d="M4857 2404 c-9 -10 2 -24 19 -24 8 0 14 7 14 15 0 15 -21 21 -33 9z"/>
<path d="M4520 2250 c-15 -28 4 -52 39 -48 22 2 26 8 26 33 0 25 -4 31 -27 33
-19 2 -30 -3 -38 -18z"/>
<path d="M5004 2229 c-10 -17 13 -36 27 -22 12 12 4 33 -11 33 -5 0 -12 -5
-16 -11z"/>
<path d="M3890 2067 l0 -52 121 3 c104 3 120 5 117 19 -2 11 -30 23 -93 39
-49 12 -102 27 -117 33 l-28 11 0 -53z"/>
<path d="M4344 1986 c-8 -22 3 -33 18 -18 9 9 9 15 0 24 -9 9 -13 7 -18 -6z"/>
<path d="M4787 1882 c-25 -28 -21 -67 10 -91 30 -24 58 -20 86 11 22 27 22 53
-3 78 -25 25 -72 26 -93 2z"/>
<path d="M4550 1880 c0 -5 5 -10 10 -10 6 0 10 5 10 10 0 6 -4 10 -10 10 -5 0
-10 -4 -10 -10z"/>
<path d="M4312 1864 c4 -21 22 -23 26 -1 2 10 -3 17 -13 17 -10 0 -15 -6 -13
-16z"/>
<path d="M4390 1865 c0 -10 7 -15 18 -13 21 4 19 22 -2 26 -10 2 -16 -3 -16
-13z"/>
<path d="M4172 1839 c2 -6 8 -10 13 -10 5 0 11 4 13 10 2 6 -4 11 -13 11 -9 0
-15 -5 -13 -11z"/>
<path d="M4574 1779 c-10 -17 13 -36 27 -22 12 12 4 33 -11 33 -5 0 -12 -5
-16 -11z"/>
<path d="M2880 1375 c0 -77 4 -125 10 -125 6 0 10 41 10 102 0 56 4 98 8 93 5
-6 26 -52 47 -102 21 -51 41 -93 45 -93 4 0 24 42 45 93 21 50 42 96 47 102 4
5 8 -37 8 -93 0 -63 4 -102 10 -102 15 0 9 242 -6 247 -6 2 -31 -44 -55 -102
-24 -57 -47 -105 -51 -105 -3 0 -10 12 -16 28 -32 91 -76 182 -88 182 -11 0
-14 -24 -14 -125z"/>
<path d="M3272 1483 c-6 -10 -26 -59 -45 -109 -19 -49 -38 -97 -42 -106 -4
-11 -3 -18 4 -18 6 0 17 16 25 35 15 34 17 35 70 35 53 0 55 -1 67 -35 12 -32
29 -48 29 -27 0 14 -81 226 -90 236 -4 4 -13 0 -18 -11z m31 -65 c8 -24 18
-51 22 -60 6 -16 1 -18 -40 -18 -44 0 -47 1 -41 23 7 30 35 97 40 97 2 0 11
-19 19 -42z"/>
<path d="M3440 1376 c0 -77 4 -126 10 -126 6 0 10 23 10 50 l0 50 38 0 c34 0
39 -4 64 -50 16 -28 32 -50 38 -50 15 0 13 5 -19 55 l-29 46 24 24 c28 29 31
64 6 95 -13 16 -32 23 -80 27 l-62 6 0 -127z m122 87 c43 -39 9 -93 -59 -93
l-43 0 0 55 0 55 42 0 c24 0 49 -7 60 -17z"/>
<path d="M3680 1375 c0 -77 4 -125 10 -125 6 0 10 22 10 49 0 32 5 53 16 62
18 14 19 13 91 -76 17 -22 34 -37 38 -33 4 4 -10 29 -31 55 -75 91 -73 78 -19
133 27 27 46 53 42 57 -4 4 -36 -25 -72 -63 l-64 -69 -1 68 c0 38 -4 67 -10
67 -6 0 -10 -48 -10 -125z"/>
<path d="M3920 1375 l0 -125 75 0 c43 0 75 4 75 10 0 6 -28 10 -65 10 l-65 0
0 50 0 50 55 0 c30 0 55 5 55 10 0 6 -25 10 -55 10 l-55 0 0 45 0 45 65 0 c37
0 65 4 65 10 0 6 -32 10 -75 10 l-75 0 0 -125z"/>
<path d="M4115 1491 c-3 -6 14 -11 37 -13 l43 -3 3 -112 c4 -150 22 -148 22 2
l0 115 40 0 c22 0 40 5 40 10 0 13 -177 13 -185 1z"/>
<path d="M4360 1376 c0 -77 4 -126 10 -126 6 0 10 23 10 50 l0 50 41 0 c41 0
78 14 91 34 4 6 8 25 8 42 0 46 -30 67 -100 72 l-60 4 0 -126z m124 88 c23
-22 20 -71 -3 -84 -11 -5 -38 -10 -60 -10 l-41 0 0 55 0 55 44 0 c27 0 51 -6
60 -16z"/>
<path d="M4590 1375 l0 -125 70 0 c40 0 70 4 70 10 0 6 -27 10 -60 10 l-60 0
0 115 c0 70 -4 115 -10 115 -6 0 -10 -48 -10 -125z"/>
<path d="M4849 1473 c-47 -123 -79 -209 -79 -215 0 -21 17 -4 29 27 12 34 14
35 67 35 53 0 55 -1 70 -35 8 -19 19 -35 25 -35 6 0 9 6 6 13 -3 6 -24 60 -47
119 -23 59 -46 110 -51 113 -5 4 -14 -6 -20 -22z m36 -50 c33 -80 33 -83 -20
-83 -41 0 -46 2 -40 18 4 9 14 36 22 60 8 23 17 42 19 42 2 0 11 -17 19 -37z"/>
<path d="M5069 1485 c-64 -34 -64 -190 -1 -224 52 -28 133 7 132 56 -1 16 -2
16 -15 -2 -29 -40 -36 -45 -69 -45 -51 0 -71 29 -71 105 0 75 20 105 70 105
31 0 65 -25 65 -48 0 -7 5 -12 10 -12 18 0 10 31 -15 55 -27 28 -66 32 -106
10z"/>
<path d="M5270 1375 l0 -125 75 0 c43 0 75 4 75 10 0 6 -28 10 -65 10 l-65 0
0 50 0 50 55 0 c30 0 55 5 55 10 0 6 -25 10 -55 10 l-55 0 0 45 0 45 65 0 c37
0 65 4 65 10 0 6 -32 10 -75 10 l-75 0 0 -125z"/>
<path d="M5515 1488 c-62 -35 -41 -97 39 -119 93 -26 95 -98 4 -99 -27 0 -42
6 -56 25 -21 27 -32 32 -32 15 0 -26 50 -60 87 -60 57 0 85 23 81 68 -3 34 -7
38 -54 57 -81 32 -103 62 -72 93 25 25 108 8 108 -23 0 -8 5 -15 10 -15 19 0
10 29 -16 49 -29 23 -68 27 -99 9z"/>
<path d="M5595 4321 c-3 -5 -1 -12 5 -16 5 -3 10 1 10 9 0 18 -6 21 -15 7z"/>
<path d="M5465 3870 c-3 -5 1 -10 10 -10 9 0 13 5 10 10 -3 6 -8 10 -10 10 -2
0 -7 -4 -10 -10z"/>
<path d="M1055 3420 c-3 -5 -1 -10 4 -10 6 0 11 5 11 10 0 6 -2 10 -4 10 -3 0
-8 -4 -11 -10z"/>
</g>
</svg>
